<svg width="702" height="702" viewBox="0 0 702 702" fill="none" xmlns="http://www.w3.org/2000/svg">
<circle cx="351" cy="351" r="343.5" fill="#EBDBB2" stroke="#282828" stroke-width="15"/>
<path fill-rule="evenodd" clip-rule="evenodd" d="M519.529 372.003C517.376 353.088 520.162 313.552 520.349 311.15C521.529 295.965 514.414 236.002 500.964 241.527C478.402 223.666 448.351 219.722 420.251 217.838C361.884 213.924 299.791 222.909 254.721 262.189C232.432 282.588 210.733 312.257 212.477 343.149C192.226 372.431 163.677 412.598 188.909 446.831C197.485 457.768 211.117 461.841 221.891 470.124C243.563 487.604 257.159 512.69 279.037 530.066C336.997 582.149 435.414 593.029 492.36 533.789C536.395 490.885 529.275 426.699 521.529 372.003C516.322 335.23 523.729 408.904 519.529 372.003Z" fill="#EDB98A"/>
<path fill-rule="evenodd" clip-rule="evenodd" d="M342.28 137.625C357.89 134.475 373.919 132.515 389.86 133.105L391.089 133.153C403.083 133.632 418.273 134.693 428.736 141.667C429.338 141.063 430.306 140.753 431.184 141.172C443.618 147.107 457.294 151.398 470.386 155.662C483.418 159.905 496.938 162.706 510.597 163.835C515.736 164.26 520.134 169.809 516.88 174.786C516.106 175.972 515.352 177.17 514.601 178.371C515.857 178.24 517.113 178.105 518.369 177.978C522.502 177.562 526.631 181.973 526.386 185.997C526.233 188.528 525.96 191.029 525.556 193.5C527.13 193.467 528.695 193.703 530.207 194.342C537.863 197.575 537.33 206.694 536.757 213.632C535.963 223.26 532.362 233.458 525.676 240.664C530.668 245.849 534.202 252.041 536.31 259.395C537.839 264.765 538.69 270.485 538.27 276.075L538.136 277.749C537.617 283.815 536.584 290.531 532.22 294.895C529.98 297.145 527.22 297.965 524.589 297.705C526.18 311.685 527.2 325.745 528.16 339.755L528.61 346.451C530.752 378.831 532.361 411.422 531.94 443.855C531.549 474.165 525.56 503.585 506.97 528.195C490.039 550.605 465.73 567.125 438.23 573.405C423.41 576.795 408.28 577.035 393.28 574.875C386.009 573.825 378.69 572.215 371.789 569.675C364.15 566.855 358.66 562.705 353.52 556.485C351.089 553.535 352.259 547.255 357.1 547.845C364.421 548.733 371.105 549.803 378.124 551.968L379.129 552.285C386.12 554.525 393.36 556.195 400.669 556.905C415.64 558.355 430.839 556.895 445.18 552.355C468.53 544.955 488.64 528.465 501.53 507.745C516.83 483.185 518.56 455.305 518.339 427.065C518.102 396.077 517.094 365.07 515.449 334.114L515.169 328.955C514.299 313.025 513.459 297.085 512.72 281.145C512.49 276.145 512.14 271.105 511.509 266.115C505.74 262.735 500.57 258.075 497.2 252.325C490.43 255.125 483.31 257.145 476.759 258.755C461.585 262.487 445.831 263.393 430.386 261.056C426.22 262.777 421.971 264.29 417.657 265.592C416.491 266.109 415.325 266.617 414.16 267.115C403.759 271.565 393.209 275.335 382.23 278.095L379.533 278.768C373.755 280.192 367.479 281.595 361.33 282.035C360.32 282.425 359.23 282.755 358.039 283.045C352.44 284.405 346.629 284.835 340.89 284.355C335.299 283.885 331.259 278.235 334.339 272.945C336.589 269.085 338.86 265.235 341.15 261.395C333.18 264.715 324.95 267.475 316.65 269.815C308.27 272.175 299.77 274.165 291.259 275.995C286.709 276.965 282.14 277.825 277.6 278.795C274.35 279.485 269.36 279.845 266.709 281.985C263.78 284.335 262.95 289.815 261.839 293.195C260.379 297.585 259.009 301.995 257.759 306.455C255.27 315.355 253.23 324.385 251.65 333.505C250.07 342.635 249.009 351.855 248.419 361.105C247.83 370.345 248.089 379.645 247.14 388.845C246.629 393.725 241.39 396.235 237.52 392.825C237.066 392.425 236.608 392.021 236.155 391.612L235.48 390.995C232.169 387.995 228.959 384.815 226.31 381.235C225.83 380.575 225.37 379.885 224.94 379.185C224.87 379.185 224.81 379.165 224.74 379.115L224.005 378.562C215.918 372.543 202.406 364.694 194.52 374.695C192.007 377.881 190.72 381.938 189.653 385.851L187.779 392.856C186.567 397.428 185.426 402.026 184.759 406.705C183.249 417.185 184.009 429.265 191.22 437.665C194.1 441.025 198.07 443.425 202.499 444.055C204.97 444.395 207.41 443.975 209.86 443.665C212.35 443.355 214.749 443.855 217.24 443.615C221.2 443.225 222.93 447.965 221.45 450.945C220.65 452.545 219.709 453.925 218.64 455.095C219.499 455.835 220.32 456.635 221.11 457.475C223.45 458.225 225.549 459.835 227.12 461.965C228.39 463.685 229.049 465.555 229.16 467.525C229.299 468.015 229.419 468.515 229.53 469.025L231.675 472.507C232.147 473.271 232.617 474.025 233.089 474.765C238.549 483.365 244.61 490.645 252.14 497.505C259.39 504.105 267.259 510.015 274.07 517.095L274.872 517.936C281.222 524.627 287.915 532.726 285.43 542.455C284.79 544.955 281.299 546.755 279.02 545.065C271.69 539.625 267.999 531.005 261.78 524.405C255.379 517.605 248.289 511.495 241.87 504.715C235.799 498.315 231.009 491.065 227.4 483.085C225.959 484.675 223.86 485.805 220.95 486.245C215.95 486.995 211.289 484.065 209.11 479.735C207.709 480.355 206.28 480.915 204.839 481.355C197.259 483.675 192.49 475.245 195.35 469.015C196.879 465.675 198.789 462.775 201.16 460.335C193.749 459.315 186.209 455.485 181.339 450.705C169.12 438.695 167.44 420.645 170.19 404.595C171.65 396.085 174.169 387.475 177.44 379.485C178.009 378.095 178.62 376.695 179.289 375.315C178.919 375.305 178.539 375.145 178.299 374.835C176.089 371.815 173.4 369.345 171.759 365.965C170.249 362.865 168.57 359.725 167.379 356.495C164.93 349.885 163.73 342.425 162.93 335.435C161.28 321.125 161.919 306.905 164.11 292.685C167.839 268.465 176.847 245.287 190.118 224.949C189.395 224.569 188.703 224.111 188.058 223.569L187.739 223.291L187.221 222.823C183.434 219.396 183.761 212.973 187.221 209.502L188.314 208.407C189.698 207.032 190.891 205.943 193.126 204.446C193.456 204.225 193.793 204.017 194.134 203.823C192.964 201.661 192.558 199.133 193.373 196.344C196.213 186.628 210.193 186.972 219.054 191.209C228.857 182.46 239.727 174.865 251.509 168.715C279.57 154.075 311.299 143.865 342.28 137.625ZM197.23 393.525C202.47 391.815 209.43 395.405 214.14 397.565C220.11 400.305 225.19 404.355 230.11 408.635C232.56 410.775 232.999 414.275 232.39 417.265C232.329 417.565 232.27 417.875 232.199 418.185C231.549 421.375 227.989 423.885 224.839 423.795C218.249 423.615 215.11 417.925 211.379 413.105C210.94 413.885 210.39 414.605 209.709 415.145L209.249 415.505C207.701 416.684 205.995 417.626 203.949 417.535C202.499 417.465 201.11 417.095 199.829 416.425C196.629 414.735 195.22 410.595 196.089 407.225C196.629 405.105 197.869 403.445 199.489 402.295L198.885 401.882C197.593 400.983 196.415 400.035 195.497 398.636L195.289 398.305H195.369C194.369 396.585 195.02 394.245 197.23 393.525Z" fill="black"/>
<path fill-rule="evenodd" clip-rule="evenodd" d="M431.144 505.995C423.471 508.216 415.236 508.414 407.415 506.121C400.321 504.04 393.038 499.461 387.817 493.402C383.179 488.02 380.176 481.479 380.294 474.498C380.307 473.7 380.592 473.035 381.031 472.518C381.504 471.962 382.163 471.58 382.87 471.414C383.597 471.244 384.366 471.304 385.02 471.601C385.612 471.87 386.12 472.327 386.437 472.995C387.24 474.048 388.039 475.086 388.841 476.095C395.292 484.056 401.54 490.006 411.241 492.14C416.504 493.298 421.76 492.785 426.584 491.018C431.747 489.126 436.414 485.801 440.071 481.545C441.724 479.622 443.675 478.837 445.583 478.824C447.746 478.809 449.883 479.813 451.493 481.418C453.075 482.996 454.135 485.14 454.231 487.382C454.315 489.351 453.673 491.407 451.964 493.241C446.334 499.283 439.038 503.71 431.144 505.995ZM430.907 406.28C438.772 411.058 450.756 422.199 442.295 434.045C432.336 444.489 417.996 432.514 410.93 427.098C404.378 422.9 397.017 433.696 403.096 438.597C454.155 476.379 474.876 407.529 434.885 400.662C430.482 399.905 428.846 404.802 430.907 406.28ZM357.334 385.256C354.807 383.64 351.833 383.085 348.538 384.584C345.962 385.754 341.445 389.656 338.302 394.786C336.151 398.295 334.626 402.412 334.944 406.7C335.018 407.696 334.649 408.43 334.069 408.973C333.61 409.402 332.947 409.717 332.169 409.816C331.509 409.899 330.769 409.824 330.168 409.636C329.024 409.28 328.419 408.538 328.191 407.933C325.99 402.091 326.938 395.571 329.405 389.69C332.734 381.752 338.779 375.104 342.74 372.96C349.518 369.291 357.514 369.122 364.301 372.86C370.079 376.042 373.692 381.178 377.285 386.414C378.049 387.528 378.807 388.632 379.59 389.718C381.161 391.893 381.317 394.05 380.709 395.9C380.035 397.949 378.318 399.678 376.17 400.583C374.184 401.42 371.88 401.538 369.841 400.678C368.119 399.952 366.538 398.537 365.538 396.135C363.853 392.091 361.047 387.628 357.334 385.256V385.256ZM485.719 394.254C483.987 395.155 482.633 395.427 480.712 394.852C479.65 394.533 478.601 393.922 477.779 393.101C476.965 392.287 476.377 391.275 476.149 390.152C475.587 387.381 474.07 384.786 471.908 383.095C470.06 381.65 467.727 380.884 465.14 381.316C462.349 381.782 459.689 383.571 457.857 385.681C457.245 386.387 456.765 387.189 456.282 387.985C455.38 389.474 454.502 390.859 453.258 391.952C452.786 392.368 452.075 392.657 451.386 392.657C451.106 392.657 450.822 392.611 450.551 392.527C447.773 389.739 447.238 387.625 447.328 385.528C447.422 383.328 448.289 381.102 449.691 379.024C452.98 374.15 459.224 370.154 463.438 369.249C469.208 368.01 474.939 369.497 479.534 372.719C484.262 376.033 487.765 381.179 488.857 386.978C489.12 388.375 489.008 389.883 488.476 391.19C487.956 392.467 487.05 393.561 485.719 394.254ZM370.061 333.294C366.598 336.666 362.499 337.188 358.353 337.653C356.049 337.913 354.21 338.123 352.4 338.532C347.425 339.654 342.508 341.344 338.022 343.779C333.332 346.324 328.221 349.393 324.545 353.325C323.67 354.26 322.846 355.242 322.021 356.226C321.268 357.123 320.543 357.987 319.779 358.82C318.902 359.776 318.069 360.779 317.24 361.779C316.727 362.622 316.626 362.83 316.523 363.046C316.368 363.371 316.187 363.734 315.981 364.124C315.698 364.657 315.367 365.242 315.02 365.771C314.444 366.74 314.134 367.006 313.867 367.126C313.423 367.323 313.002 367.42 312.594 367.368C312.211 367.318 311.851 367.135 311.494 366.834C309.717 365.332 309.192 362.868 309.246 360.253C309.327 356.284 310.792 351.89 312.142 349.188C315.282 342.912 319.636 336.387 324.872 331.702C330.846 326.355 337.382 322.307 344.889 319.517C349.554 317.783 354.956 316.191 360.039 316.392C363.697 316.537 367.19 317.624 370.074 320.338C371.845 322.005 372.695 324.375 372.695 326.743C372.695 329.159 371.812 331.589 370.061 333.294ZM492.762 364.174C492.541 364.534 492.237 364.783 491.897 364.932C491.542 365.089 491.145 365.134 490.764 365.07C490.385 365.006 490.024 364.834 489.738 364.571C489.464 364.32 489.256 363.986 489.162 363.577C486.863 353.484 482.399 345.975 472.87 341.133C468.183 338.751 462.793 337.238 457.69 336.031C456.207 335.68 454.641 335.453 453.063 335.223C448.118 334.501 443.137 333.675 439.913 329.68C437.971 327.273 437.156 324.196 437.617 321.381C438.051 318.731 439.6 316.301 442.417 314.845C449.429 311.222 458.142 314.777 465.223 317.806C465.749 318.031 466.264 318.251 466.769 318.464C473.693 321.386 480.009 325.242 485.201 330.756C489.32 335.131 493.137 341.599 494.674 348.252C495.953 353.788 495.652 359.439 492.762 364.174Z" fill="black"/>
<path fill-rule="evenodd" clip-rule="evenodd" d="M522.432 382.945C514.016 439.957 455.272 446.262 444.835 389.663C446.51 388.929 447.715 387.482 447.463 384.675C447.404 372.34 451.227 359.304 462.336 352.444C473.816 345.367 487.251 344.665 500.536 344.843C525.887 344.239 525.354 365.462 522.432 382.945M435.639 358.15C427.682 357.814 417.617 358.095 410.489 362.951C408.53 357.666 403.438 352.023 398.294 349.005C417.414 349.566 437.096 347.681 456.359 346.218C451.748 349.366 447.458 354.096 444.67 359.564C442.083 358.182 438.377 358.311 435.639 358.15M400.569 388.99C378.507 465.05 323.437 431.898 317.434 422.151C306.604 406.02 304.567 366.809 314 356.325C327.503 346.844 346.619 349.284 362.57 349.051C391.875 349.447 412.688 358.228 400.569 388.99M548.481 354.007C542.487 353.222 536.082 353.063 530.509 355.707C528.793 348.402 523.406 342.295 517.324 339.607C516.588 338.682 516.698 338.185 514.183 338.324C498.741 333.676 481.461 336.135 466.622 340.902C443.186 342.879 418.598 344.438 394.965 347.161C372.826 337.203 306.016 335.744 301.864 360.288C296.641 359.505 287.746 355.388 283.358 360.973C251.167 355.507 217.904 363.104 185.573 366.487C177.435 367.988 173.243 384.164 182.481 383.943C187.675 382.532 182.322 373.87 189.315 373.219C220.509 369.806 251.02 364.965 282.534 364.399C281.437 369.849 303.376 370.203 303.7 367.021C303.747 367.045 303.797 367.061 303.844 367.082C298.423 387.318 303.316 416.44 313.114 428.989C326.841 445.42 361.304 450.134 376.585 439.562C396.298 429.805 416.804 380.826 411.044 364.554C421.498 361.235 431.833 362.232 442.683 363.922C440.199 370.95 435.911 388.249 442.08 389.749C440.948 424.095 472.156 445.525 500.925 431.436C525.825 419.728 534.534 382.67 531.487 360.177C534.587 366.176 560.614 359.645 548.481 354.007" fill="black"/>
</svg>
