<?xml version="1.0" standalone="no"?>
<!DOCTYPE svg PUBLIC "-//W3C//DTD SVG 20010904//EN"
 "http://www.w3.org/TR/2001/REC-SVG-20010904/DTD/svg10.dtd">
<svg version="1.0" xmlns="http://www.w3.org/2000/svg"
 width="1080.000000pt" height="1080.000000pt" viewBox="0 0 1080.000000 1080.000000"
 preserveAspectRatio="xMidYMid meet">

<g transform="translate(0.000000,1080.000000) scale(0.100000,-0.100000)"
fill="#000000" stroke="none">
<path d="M0 5400 l0 -5400 5400 0 5400 0 0 5400 0 5400 -5400 0 -5400 0 0
-5400z m5875 5315 c660 -64 1268 -235 1850 -520 741 -363 1366 -872 1883
-1534 105 -134 308 -438 402 -601 324 -563 554 -1226 650 -1871 42 -284 53
-452 53 -784 0 -332 -11 -500 -53 -784 -177 -1189 -769 -2314 -1643 -3119
-146 -134 -390 -339 -417 -350 -8 -3 -20 -13 -27 -22 -15 -21 -301 -215 -438
-297 -141 -85 -326 -183 -335 -178 -4 2 -6 24 -3 47 8 100 1 277 -17 378 -6
36 -14 87 -17 114 l-6 49 33 -19 c18 -10 38 -27 44 -36 6 -10 15 -18 19 -18 5
0 18 -10 29 -23 11 -12 17 -17 14 -10 -4 6 1 18 9 26 8 9 15 22 15 29 0 22
-55 66 -144 114 -34 18 -42 29 -57 80 -41 141 -106 274 -162 336 -14 15 -22
29 -19 32 3 3 -2 6 -10 6 -11 0 -23 24 -38 79 -17 57 -27 78 -37 74 -9 -3 -11
0 -7 10 6 18 -22 77 -37 77 -6 0 -7 5 -4 10 4 6 -16 39 -44 74 -28 35 -51 71
-51 79 0 8 -7 20 -16 27 -8 8 -21 28 -29 46 -18 43 -55 44 -55 2 0 -16 4 -36
9 -46 34 -64 71 -196 58 -208 -3 -4 -14 -3 -24 1 -10 5 -21 7 -25 7 -5 -1 -8
2 -8 6 0 35 -362 77 -410 47 -8 -5 -25 -9 -39 -10 -13 0 -26 -6 -29 -13 -2 -7
-9 -12 -16 -12 -7 0 -21 -9 -31 -20 -10 -11 -23 -20 -30 -20 -7 0 -20 -9 -31
-21 -32 -36 -75 -62 -85 -52 -13 13 75 96 149 141 35 21 124 120 146 162 7 14
22 42 34 63 51 89 3 167 -95 154 -73 -9 -175 -36 -191 -50 -10 -8 -30 -18 -47
-21 -16 -4 -52 -18 -78 -32 -27 -13 -54 -24 -62 -24 -7 0 -18 -6 -24 -14 -7
-8 -24 -17 -38 -21 -15 -3 -39 -15 -54 -26 -29 -21 -75 -25 -99 -9 -13 9 -12
13 8 28 13 9 38 29 55 43 18 15 42 29 54 33 11 4 27 13 33 21 7 8 19 15 27 15
8 0 28 14 46 30 18 17 48 40 67 51 19 11 47 37 63 57 15 20 40 46 56 56 16 11
39 37 52 58 13 21 27 38 30 38 4 0 12 14 19 30 7 17 17 30 23 30 14 0 2 80
-16 97 -24 25 -85 33 -123 17 -18 -8 -41 -14 -51 -14 -28 0 -236 -69 -249 -83
-4 -4 -17 -7 -28 -7 -12 0 -43 -14 -71 -30 -27 -16 -58 -30 -67 -30 -10 0 -18
-3 -18 -8 0 -4 -15 -13 -32 -20 -53 -22 -67 -29 -178 -88 -58 -31 -112 -62
-121 -70 -8 -8 -23 -14 -32 -14 -9 0 -18 -4 -21 -9 -7 -10 -130 -71 -144 -71
-5 0 -15 -7 -22 -16 -8 -8 -30 -23 -49 -32 -20 -9 -40 -18 -45 -20 -5 -3 -6
16 -2 44 4 27 9 121 12 209 3 125 8 167 21 192 10 18 20 33 24 33 4 0 9 9 12
19 5 20 62 61 83 61 16 0 114 -91 114 -106 0 -31 94 -32 147 -2 21 12 60 45
87 72 158 165 201 222 190 251 -7 16 -3 17 26 11 19 -3 45 -14 59 -23 25 -16
35 -20 71 -27 8 -2 38 -13 65 -26 71 -32 126 -51 155 -55 13 -1 26 -8 28 -14
2 -6 14 -11 27 -11 13 0 45 -11 71 -25 26 -14 54 -25 63 -25 9 0 39 -16 68
-35 28 -19 63 -37 78 -41 16 -4 36 -15 46 -25 10 -10 30 -21 44 -25 14 -3 25
-10 25 -15 0 -5 8 -9 18 -9 10 0 29 -11 41 -24 13 -14 29 -22 36 -20 13 5 135
-74 135 -88 0 -4 11 -8 24 -8 14 0 27 -4 30 -9 3 -5 32 -26 63 -47 32 -21 80
-57 107 -81 26 -24 52 -43 58 -43 5 0 15 -6 22 -13 8 -6 28 -23 46 -37 17 -14
44 -36 58 -50 15 -13 50 -40 77 -59 28 -19 56 -41 63 -48 16 -15 32 -17 32 -3
0 6 5 10 11 10 6 0 8 -8 4 -19 -4 -14 1 -20 20 -25 26 -7 35 -26 13 -26 -7 0
0 -12 15 -25 31 -28 57 -35 37 -10 -7 8 -19 15 -26 15 -8 0 -14 5 -14 10 0 13
17 12 60 -3 52 -18 59 -25 52 -49 -4 -16 -2 -20 10 -15 20 7 87 -16 99 -34 14
-22 10 -49 -6 -49 -8 0 -15 -5 -15 -11 0 -7 10 -9 25 -5 35 9 71 -18 94 -70
14 -30 31 -49 58 -63 38 -19 59 -45 91 -111 11 -22 25 -36 40 -38 12 -2 22
-10 22 -17 0 -16 88 -91 97 -82 3 4 -2 17 -11 29 -9 13 -28 39 -42 58 -25 36
-86 109 -115 140 -9 10 -52 60 -95 111 -105 124 -119 139 -133 139 -6 0 -11 6
-11 13 0 6 -17 31 -38 54 -60 67 -283 273 -296 273 -6 0 -20 13 -29 30 -10 16
-21 30 -25 30 -4 0 -23 14 -42 30 -19 17 -43 29 -52 26 -10 -2 -15 1 -12 8 6
15 -19 38 -73 66 -24 12 -43 26 -43 31 0 5 -22 20 -49 33 -27 14 -55 31 -62
39 -8 7 -57 37 -109 67 -52 29 -97 57 -100 60 -3 4 -34 20 -70 35 -36 16 -77
37 -92 47 -14 10 -31 18 -37 18 -6 0 -11 5 -11 10 0 6 -5 10 -12 10 -6 0 -30
8 -52 19 -23 10 -61 24 -86 32 -25 7 -55 19 -67 27 -13 8 -23 11 -23 8 0 -4
-17 2 -37 13 -38 21 -155 61 -177 61 -7 0 -31 9 -54 20 -22 11 -50 20 -62 20
-12 0 -33 6 -48 14 -15 7 -52 16 -82 20 -82 10 -118 24 -125 49 -12 42 -34 83
-55 102 -11 10 -20 24 -20 30 0 7 -23 36 -50 65 -28 29 -49 55 -46 57 2 2 21
6 42 9 136 16 320 46 336 55 10 5 23 7 29 4 10 -7 98 10 134 26 11 5 58 17
105 28 47 11 119 31 160 45 41 14 80 26 87 26 7 0 48 17 91 39 42 21 127 62
187 91 61 29 124 64 141 77 17 12 34 23 38 23 13 0 242 146 251 160 3 5 25 22
48 37 55 38 176 152 241 228 42 50 53 71 64 125 8 36 19 85 27 110 7 25 18 75
25 111 6 36 15 70 18 76 5 8 30 9 82 3 205 -24 370 -7 497 51 35 16 67 29 72
29 6 0 20 13 32 29 12 17 34 35 48 41 49 20 130 164 131 231 0 89 -62 233
-112 260 -16 8 -19 8 -13 -1 6 -9 2 -9 -14 0 -17 9 -26 9 -37 -1 -11 -9 -14
-8 -14 10 0 21 -14 28 -24 12 -3 -5 7 -22 23 -37 46 -46 88 -126 99 -190 6
-35 6 -60 1 -62 -5 -2 -7 -8 -3 -13 3 -5 1 -9 -4 -9 -5 0 -15 -13 -22 -29 -16
-39 -98 -119 -151 -148 -23 -12 -47 -27 -53 -33 -5 -5 -31 -10 -57 -10 -34 0
-49 -4 -53 -16 -5 -13 -9 -14 -21 -4 -9 7 -29 10 -52 6 -82 -13 -110 -14 -173
-5 -36 5 -76 11 -90 14 -14 4 -34 7 -46 7 -20 0 -21 5 -17 77 2 42 10 119 18
171 8 52 18 138 24 190 11 101 24 208 27 225 1 6 2 16 3 24 1 11 17 12 82 7
45 -4 102 -14 127 -22 58 -17 94 -18 110 -2 21 21 13 27 -25 23 -21 -3 -30 -2
-21 1 25 8 10 34 -19 34 -20 0 -24 4 -18 18 4 9 20 76 35 147 40 187 56 445
39 625 -16 177 -52 397 -68 413 -6 6 -11 25 -11 42 0 16 -16 68 -35 115 -19
47 -35 91 -35 99 0 7 -11 35 -25 63 -14 27 -25 58 -25 69 0 11 -7 22 -15 25
-8 4 -15 14 -15 24 0 11 -4 22 -10 25 -5 3 -10 13 -10 21 0 9 -12 31 -26 50
-15 19 -23 34 -20 34 9 0 -23 60 -40 78 -8 7 -14 19 -14 25 0 7 -18 36 -40 64
-22 29 -48 70 -59 91 -10 20 -47 66 -80 100 -34 35 -61 67 -61 73 0 5 -11 15
-25 21 -14 6 -25 19 -25 30 0 11 -7 18 -19 18 -13 0 -21 9 -26 30 -12 57 -80
105 -105 75 -10 -12 -10 -15 4 -15 9 0 16 -4 16 -10 0 -13 -16 -13 -43 1 -35
18 -67 51 -67 70 0 10 -10 19 -25 23 -31 8 -32 18 -3 31 33 15 32 32 -3 39
-22 4 -30 10 -25 21 11 29 -10 15 -28 -20 -19 -35 -46 -47 -46 -20 0 9 6 12
18 8 16 -6 16 -5 0 14 -10 11 -18 25 -18 31 0 7 -7 9 -17 5 -11 -4 -12 -8 -5
-11 20 -6 13 -19 -13 -24 -18 -4 -29 1 -42 21 -27 42 -38 49 -64 44 -16 -3
-30 1 -38 11 -8 9 -22 16 -33 16 -10 0 -21 7 -24 15 -4 8 -9 13 -14 10 -4 -2
-16 5 -28 15 -12 11 -28 20 -37 20 -8 0 -15 9 -15 20 0 23 -10 26 -28 8 -9 -9
-12 -7 -12 9 0 11 -7 23 -15 27 -10 3 -15 -1 -15 -11 0 -13 -3 -14 -12 -5 -7
7 -20 12 -31 12 -10 0 -25 6 -33 14 -7 8 -19 16 -26 19 -10 4 -11 7 0 18 17
19 15 27 -10 35 -13 3 -31 14 -41 23 -17 15 -20 14 -32 -2 -7 -10 -16 -14 -19
-9 -3 5 -21 12 -41 15 -31 5 -102 47 -79 47 22 0 -37 30 -67 33 -52 7 -92 19
-106 32 -6 7 -23 10 -37 8 -16 -3 -38 4 -62 21 -21 14 -49 26 -61 26 -13 0
-23 6 -23 14 0 18 -25 27 -38 14 -16 -16 -83 -17 -137 -3 -27 7 -57 13 -65 14
-8 0 -33 4 -55 10 -38 9 -328 44 -483 57 -52 4 -75 11 -81 23 -9 15 -11 15
-23 -1 -7 -10 -40 -22 -78 -29 -36 -6 -75 -16 -88 -22 -18 -8 -25 -8 -31 2 -6
9 -10 5 -15 -13 -3 -14 -10 -26 -15 -26 -12 0 -38 26 -51 51 -6 10 -18 19 -26
19 -8 0 -13 4 -9 10 3 5 12 7 20 3 8 -3 15 0 15 5 0 6 -10 12 -22 14 -15 2
-22 9 -22 21 2 14 -1 15 -12 6 -7 -6 -19 -9 -26 -6 -7 2 -21 0 -30 -4 -10 -6
-19 -5 -23 1 -4 6 -11 7 -18 3 -13 -8 -44 -13 -102 -17 -22 -2 -59 -8 -83 -15
-24 -7 -49 -10 -55 -8 -11 4 -26 -2 -97 -39 -17 -8 -34 -13 -39 -9 -5 3 -12 1
-16 -5 -3 -5 -18 -10 -33 -10 -15 -1 -58 -12 -97 -26 -38 -14 -77 -26 -86 -25
-9 0 -31 -14 -48 -30 -18 -16 -36 -27 -40 -25 -10 7 -143 -38 -174 -59 -17
-11 -36 -15 -52 -11 -15 4 -25 2 -25 -4 0 -19 -57 -70 -78 -70 -12 0 -37 -8
-56 -17 -30 -14 -34 -19 -23 -31 10 -13 8 -14 -15 -8 -17 4 -28 2 -28 -4 0 -5
-6 -9 -12 -8 -7 2 -14 -7 -16 -19 -2 -13 -9 -23 -17 -23 -7 0 -15 -5 -17 -12
-7 -19 -98 -17 -98 2 -1 11 -3 11 -11 -3 -6 -10 -8 -24 -6 -31 4 -9 -2 -11
-19 -8 -13 2 -24 8 -24 13 0 5 -6 9 -13 9 -15 0 -53 -41 -49 -54 5 -17 -10
-46 -24 -46 -8 0 -12 -5 -8 -11 3 -6 17 -8 33 -4 31 8 18 -6 -21 -23 -33 -13
-44 -2 -39 40 2 20 -2 28 -13 28 -9 0 -16 -7 -16 -15 0 -8 -8 -15 -17 -15 -10
0 -34 -14 -53 -31 l-35 -31 30 -24 c36 -29 23 -32 -22 -5 -29 18 -33 19 -45 3
-7 -8 -8 -13 -2 -9 7 4 18 -1 25 -10 13 -14 11 -16 -13 -11 -18 3 -25 1 -21
-8 2 -6 -1 -15 -8 -20 -7 -4 -14 -3 -17 4 -3 10 -85 -67 -159 -149 -12 -13
-29 -30 -38 -38 -14 -11 -14 -15 -3 -22 10 -7 9 -9 -4 -9 -10 0 -18 -4 -18 -9
0 -5 -16 -27 -35 -48 -76 -82 -86 -95 -106 -136 -12 -23 -34 -57 -50 -77 -34
-43 -60 -87 -99 -165 -17 -33 -34 -67 -39 -75 -5 -8 -17 -32 -25 -52 -9 -20
-21 -40 -26 -43 -6 -3 -10 -13 -10 -21 0 -9 -11 -40 -25 -70 -29 -62 -84 -217
-92 -254 -2 -14 -11 -45 -18 -70 -49 -161 -79 -450 -70 -655 11 -241 15 -271
49 -427 8 -37 12 -78 8 -90 -6 -26 -30 -47 -52 -48 -8 0 -24 -7 -34 -15 -17
-13 -18 -18 -8 -40 9 -20 16 -24 29 -16 21 10 135 41 178 46 89 12 145 15 146
8 0 -4 2 -17 4 -28 8 -43 15 -103 21 -170 3 -38 8 -74 11 -78 3 -5 7 -32 9
-60 2 -29 9 -86 15 -127 7 -41 13 -102 14 -135 0 -33 5 -68 9 -77 6 -13 3 -17
-11 -16 -28 1 -91 -10 -103 -17 -19 -12 -143 -13 -204 -3 -47 8 -60 8 -67 -3
-8 -12 -11 -12 -22 1 -14 18 -31 23 -74 22 -18 -1 -35 3 -38 8 -4 6 -24 20
-47 31 -76 39 -210 192 -192 221 4 7 9 28 11 48 2 19 15 58 29 85 17 34 19 43
7 29 -29 -34 -61 -48 -79 -33 -19 15 -27 6 -42 -47 -30 -106 0 -213 82 -295
88 -87 101 -99 112 -99 6 0 31 -11 55 -24 24 -13 83 -34 132 -46 77 -19 105
-21 247 -16 87 3 170 8 183 11 29 8 36 -7 67 -150 39 -179 54 -226 85 -263 52
-62 239 -246 266 -262 14 -8 70 -45 125 -81 54 -36 119 -77 144 -91 25 -14 76
-44 115 -67 38 -22 75 -41 81 -41 6 0 17 -6 23 -13 6 -8 30 -20 53 -27 24 -8
76 -31 116 -52 40 -21 81 -38 90 -38 17 0 117 -32 157 -50 11 -5 58 -18 105
-28 47 -11 112 -27 144 -36 33 -9 66 -14 74 -11 7 3 21 1 31 -5 24 -12 294
-52 354 -51 26 0 47 -4 47 -9 0 -5 -16 -21 -35 -36 -20 -15 -47 -46 -61 -70
-14 -23 -31 -48 -39 -54 -8 -7 -26 -37 -40 -66 -29 -62 -41 -68 -137 -78 -36
-4 -74 -14 -85 -21 -10 -8 -29 -15 -43 -15 -15 0 -30 -4 -35 -8 -6 -5 -37 -17
-70 -27 -109 -31 -149 -46 -210 -74 -33 -15 -80 -33 -105 -40 -25 -7 -63 -22
-86 -32 -23 -10 -46 -19 -53 -19 -6 0 -11 -4 -11 -10 0 -5 -6 -10 -14 -10 -8
0 -16 -4 -18 -8 -3 -9 -132 -72 -147 -72 -5 0 -22 -11 -38 -24 -15 -12 -32
-25 -38 -27 -28 -11 -150 -84 -153 -91 -2 -5 -30 -22 -62 -38 -33 -16 -62 -35
-67 -42 -4 -7 -25 -22 -47 -33 -21 -11 -46 -30 -56 -43 -10 -12 -22 -22 -27
-22 -4 0 -37 -27 -73 -60 -36 -33 -67 -60 -70 -60 -3 0 -53 -45 -110 -100 -58
-56 -119 -112 -137 -125 -17 -14 -44 -45 -60 -70 -15 -24 -35 -47 -43 -50 -8
-4 -42 -38 -75 -77 -33 -38 -91 -104 -128 -146 -38 -43 -74 -88 -80 -102 -6
-14 -17 -33 -25 -42 -13 -16 -12 -20 8 -36 29 -23 22 -72 -11 -72 -11 0 -19
-6 -18 -13 3 -17 -11 -47 -22 -47 -5 0 -9 7 -9 15 0 19 -9 19 -34 0 -13 -10
-22 -11 -26 -5 -4 6 -12 -2 -19 -17 -8 -16 -17 -36 -22 -45 -5 -10 -6 -25 -2
-34 5 -13 3 -16 -10 -11 -17 6 -37 -18 -37 -44 0 -8 4 -8 15 1 12 10 15 10 15
-1 1 -10 5 -9 14 4 13 16 14 14 18 -21 2 -27 0 -38 -8 -35 -7 2 -15 0 -18 -6
-4 -5 3 -12 14 -16 11 -3 20 -12 20 -19 0 -19 -64 -86 -82 -86 -24 0 -31 -18
-10 -24 13 -4 19 -16 19 -36 0 -41 2 -42 -88 30 -360 290 -615 538 -860 835
-610 740 -1018 1656 -1159 2606 -42 284 -53 452 -53 784 0 503 45 866 168
1340 204 792 583 1513 1129 2150 297 347 670 675 1066 940 231 154 383 241
625 360 648 318 1348 498 2090 539 140 7 584 -4 740 -19z m-2408 -2580 c-1 0
-10 -7 -19 -14 -16 -12 -18 -10 -18 18 0 30 1 30 20 14 11 -9 18 -17 17 -18z
m-167 -109 c0 -26 -12 -46 -28 -46 -12 0 -12 -4 4 -21 18 -20 18 -22 1 -34 -9
-6 -17 -17 -17 -23 0 -17 -29 -2 -42 21 -8 16 -7 23 6 32 21 16 20 35 -1 35
-11 1 -5 6 13 14 18 8 35 19 38 25 10 16 26 14 26 -3z m30 -55 c-13 -24 -30
-28 -30 -6 0 8 7 15 15 15 8 0 15 8 16 18 0 9 3 12 5 5 3 -7 0 -21 -6 -32z
m4300 -20 c0 -14 -18 -23 -30 -16 -6 4 -8 11 -5 16 8 12 35 12 35 0z m-4405
-61 c3 -5 1 -10 -4 -10 -6 0 -11 5 -11 10 0 6 2 10 4 10 3 0 8 -4 11 -10z
m-63 -35 c6 -30 -11 -48 -32 -35 -10 7 -11 10 -2 10 7 0 12 13 12 31 0 35 15
31 22 -6z m-112 -95 c0 -5 7 -10 15 -10 8 0 15 -4 15 -10 0 -5 -7 -7 -15 -4
-8 4 -15 1 -15 -5 0 -6 -11 -16 -25 -21 -22 -8 -24 -13 -15 -29 5 -11 19 -23
30 -26 11 -4 18 -11 15 -16 -10 -15 -38 -10 -64 12 -21 18 -23 23 -13 40 7 11
10 24 7 28 -3 5 2 11 10 15 8 3 12 12 9 21 -5 11 1 15 20 15 14 0 26 -4 26
-10z m-86 -189 c8 -13 -31 -44 -47 -38 -8 3 -20 0 -26 -6 -6 -6 -11 -8 -11 -3
0 11 27 36 39 36 6 0 11 5 11 10 0 12 27 13 34 1z m1036 -351 c0 -5 -4 -10
-10 -10 -5 0 -10 5 -10 10 0 6 5 10 10 10 6 0 10 -4 10 -10z m2730 -14 c71 -5
217 -30 250 -43 8 -3 22 -7 30 -8 78 -13 109 -27 201 -92 26 -18 50 -33 54
-33 4 0 25 -15 46 -32 20 -18 66 -55 101 -83 35 -27 76 -64 92 -82 l28 -33
-12 -102 c-7 -62 -9 -134 -4 -183 9 -99 10 -104 18 -135 4 -14 8 -43 9 -65 3
-43 25 -122 62 -222 l23 -63 -56 6 c-32 3 -71 10 -89 16 -18 5 -49 11 -70 13
-21 3 -72 9 -113 14 -161 22 -170 22 -170 10 0 -8 -5 -6 -12 4 -13 17 -86 27
-288 41 -41 3 -86 8 -100 11 -14 4 -68 8 -120 10 -223 9 -327 16 -355 25 -16
5 -75 8 -130 8 -55 0 -131 4 -170 10 -38 6 -95 11 -125 10 -68 -3 -272 10
-360 22 -40 6 -92 5 -138 -1 -40 -6 -80 -9 -90 -8 -9 1 -19 0 -22 -1 -10 -3
-135 -10 -251 -13 -63 -2 -121 -7 -128 -11 -7 -4 -69 -10 -139 -12 -70 -2
-149 -6 -177 -8 -94 -9 -220 -18 -285 -21 -70 -3 -165 -11 -165 -15 0 -2 -23
-4 -184 -14 -63 -4 -125 -12 -139 -17 -13 -5 -28 -6 -34 -3 -6 4 -17 -1 -25
-11 -7 -11 -13 -13 -13 -6 0 9 -13 11 -47 6 -27 -3 -88 -10 -138 -15 -49 -5
-112 -14 -140 -20 -27 -6 -63 -12 -80 -14 -16 -2 -42 -7 -57 -11 l-27 -7 18
54 c43 126 60 188 70 263 23 162 26 238 15 326 -15 123 -10 159 21 159 8 0 15
6 15 14 0 7 12 22 28 32 15 9 40 32 56 51 16 18 34 33 41 33 7 0 19 7 26 17
36 43 284 189 360 211 19 6 48 15 65 20 29 9 35 7 76 -32 95 -88 147 -126 162
-120 10 4 16 1 16 -8 0 -19 104 -108 126 -108 3 0 31 -18 62 -39 32 -21 74
-44 94 -51 21 -6 40 -15 43 -20 7 -11 153 -81 225 -108 113 -42 273 -61 338
-41 35 11 56 46 46 74 -7 18 33 20 86 4 76 -23 260 -42 293 -30 12 5 29 4 37
-1 24 -15 96 8 120 39 l20 26 83 -22 c45 -12 98 -24 117 -27 19 -2 60 -7 90
-11 61 -7 60 -7 111 1 39 7 59 35 59 83 0 22 3 24 23 19 58 -17 124 -26 151
-21 17 3 48 7 69 9 20 3 53 10 72 16 80 26 102 173 37 238 -11 11 -30 38 -42
61 -13 22 -28 41 -34 42 -30 1 42 19 101 25 38 3 69 7 71 9 2 2 17 -1 33 -5
21 -6 33 -5 42 5 6 7 14 9 17 5 3 -5 39 -11 80 -14z m-930 -1120 c14 -2 37 -4
53 -5 32 -1 33 -8 8 -64 -25 -54 -46 -119 -43 -131 2 -5 -3 -23 -11 -40 -15
-32 -30 -127 -44 -271 -20 -203 39 -542 125 -728 18 -38 32 -73 32 -78 0 -6
11 -21 25 -35 14 -13 24 -28 22 -32 -1 -4 16 -32 38 -61 22 -30 48 -68 58 -84
10 -16 24 -36 32 -44 8 -8 16 -26 17 -41 1 -15 2 -34 4 -42 1 -8 2 -22 3 -31
1 -9 8 -20 17 -23 8 -3 12 -2 9 4 -3 5 -8 26 -9 45 -5 44 10 45 48 6 16 -16
41 -35 57 -41 16 -7 29 -16 29 -20 0 -11 96 -70 114 -70 9 0 16 -3 16 -8 0 -7
11 -12 95 -47 61 -25 76 -28 135 -29 30 -1 58 -5 61 -9 7 -10 79 -12 154 -4
72 7 218 37 225 46 3 3 36 22 75 41 71 36 175 108 233 164 51 47 150 172 169
211 9 19 20 35 25 35 4 0 21 30 38 68 17 37 38 81 46 97 30 64 71 192 69 220
-1 17 3 39 9 50 39 71 43 451 6 585 -11 41 -18 79 -16 85 2 5 21 -25 42 -68
66 -132 70 -139 87 -149 9 -5 17 -14 17 -20 0 -11 50 -58 62 -58 7 0 5 -77 -6
-245 -2 -33 -9 -72 -14 -86 -6 -14 -9 -58 -9 -97 1 -40 -1 -72 -4 -72 -13 0
-18 -74 -6 -82 9 -6 9 -10 1 -15 -14 -10 -27 -70 -54 -258 -12 -82 -26 -166
-32 -185 -20 -63 -66 -124 -140 -186 -76 -62 -244 -177 -318 -215 -23 -12 -44
-28 -47 -36 -3 -7 -10 -12 -17 -11 -6 1 -40 -13 -76 -32 -36 -18 -83 -42 -105
-54 -22 -11 -42 -23 -45 -26 -9 -12 -249 -107 -325 -130 -22 -6 -49 -15 -60
-19 -11 -5 -33 -14 -48 -20 -15 -6 -40 -11 -54 -11 -14 0 -49 -6 -77 -14 -163
-46 -169 -47 -196 -26 -64 51 -159 111 -178 113 -11 0 -20 6 -19 12 1 5 -38
29 -86 53 -71 35 -91 41 -103 31 -12 -10 -13 -9 -8 5 5 14 2 17 -17 15 -13 -1
-40 5 -59 13 -83 37 -270 56 -490 51 -179 -4 -380 -38 -380 -64 0 -5 -11 -7
-25 -3 -20 5 -25 2 -25 -12 0 -16 -2 -16 -10 -4 -7 11 -14 12 -32 3 -138 -65
-158 -77 -158 -91 0 -8 -3 -13 -6 -9 -10 9 -71 -25 -146 -81 l-67 -51 -53 14
c-156 40 -180 45 -201 45 -13 0 -52 12 -88 26 -35 15 -88 33 -117 40 -29 8
-72 23 -95 35 -23 11 -73 32 -112 46 -38 14 -72 29 -75 33 -3 4 -30 20 -60 35
-30 14 -77 39 -105 55 -27 15 -55 25 -61 23 -6 -2 -14 3 -17 11 -3 8 -25 25
-48 36 -22 12 -82 48 -133 81 -50 32 -97 59 -103 59 -7 0 -13 4 -13 9 0 6 -32
36 -70 68 -83 68 -135 150 -143 228 -3 28 -13 91 -22 140 -9 50 -18 106 -21
125 -3 19 -7 44 -10 55 -3 11 -7 49 -10 85 -3 36 -12 74 -19 86 -7 11 -10 26
-6 32 8 13 -3 165 -14 182 -4 6 -9 64 -11 128 -3 64 -6 122 -8 128 -3 6 21 38
52 72 32 33 75 96 97 139 22 43 41 80 42 82 2 2 6 2 9 -1 3 -3 -2 -34 -11 -69
-20 -75 -25 -221 -13 -379 9 -128 14 -165 22 -178 3 -5 8 -24 11 -43 9 -52 24
-110 40 -152 8 -20 15 -39 15 -42 1 -2 17 -40 37 -82 19 -43 39 -88 44 -100 5
-13 12 -23 17 -23 5 0 17 -17 28 -37 10 -21 31 -51 46 -68 14 -16 54 -63 87
-102 34 -40 72 -78 84 -84 12 -7 42 -29 67 -49 25 -21 56 -41 70 -45 14 -4 32
-12 40 -19 31 -23 61 -36 70 -31 6 4 13 -1 16 -9 3 -9 22 -18 42 -21 21 -3 53
-10 72 -15 19 -5 67 -12 105 -16 39 -3 78 -8 87 -9 10 -2 32 1 50 6 18 5 60
11 93 13 33 2 76 10 95 19 19 8 56 24 82 34 25 9 44 21 42 25 -3 5 3 8 13 8 9
0 50 23 90 50 40 28 77 50 82 50 5 0 21 16 36 36 24 32 29 34 37 19 6 -9 7
-27 4 -40 -3 -13 -3 -32 1 -42 6 -15 9 -13 14 12 4 17 7 47 8 67 1 38 16 63
111 185 24 32 38 58 34 67 -4 10 -1 16 8 16 8 0 25 24 37 53 13 28 35 75 48
102 14 28 29 66 34 85 24 103 35 139 42 146 4 4 7 20 7 36 0 16 4 48 10 71 20
86 29 260 19 367 -12 128 -47 314 -65 349 -8 14 -14 32 -14 40 0 8 -10 34 -21
58 -12 24 -19 46 -17 49 3 2 54 7 114 10 60 4 110 8 112 9 5 5 612 -4 642 -9z
m-996 -38 c-3 -4 9 -42 25 -85 17 -43 35 -103 41 -133 6 -30 18 -71 25 -90 8
-19 15 -44 15 -55 -1 -11 1 -108 3 -215 3 -165 1 -204 -14 -253 -10 -33 -20
-84 -24 -115 -3 -31 -10 -61 -15 -67 -5 -7 -17 -31 -25 -55 -9 -24 -21 -51
-29 -60 -7 -8 -23 -44 -36 -80 -12 -36 -25 -67 -29 -70 -3 -3 -24 -32 -45 -65
-21 -33 -54 -72 -72 -88 -18 -15 -35 -35 -38 -45 -4 -10 -27 -31 -53 -48 -26
-16 -58 -38 -72 -50 -30 -24 -59 -40 -151 -82 -99 -45 -125 -52 -231 -58 -156
-9 -256 19 -442 125 -56 32 -114 85 -169 153 -15 18 -36 44 -48 58 -12 14 -33
46 -46 72 -13 25 -35 63 -48 83 -14 20 -32 57 -41 83 -29 82 -48 122 -54 117
-4 -2 -7 4 -8 13 -1 9 -5 49 -8 87 -4 39 -13 86 -20 105 -8 21 -14 83 -14 150
-1 73 -5 116 -12 119 -8 2 -8 6 -1 10 5 3 13 40 16 81 3 41 8 86 11 100 2 14
7 45 9 70 8 78 16 122 26 140 10 19 159 60 218 60 17 0 32 5 32 10 0 7 13 8
35 4 21 -4 41 -2 48 5 8 6 27 10 43 9 23 -1 206 12 369 27 17 2 75 6 130 9 55
4 123 8 151 11 28 2 124 7 215 11 90 3 165 7 166 8 7 6 171 0 167 -6z m1531
-2 c83 -3 168 -7 190 -10 22 -3 94 -8 160 -12 66 -4 134 -8 150 -9 17 -2 102
-8 190 -15 88 -7 176 -14 195 -17 19 -2 51 -5 70 -6 58 -4 254 -44 281 -58 11
-5 21 -31 28 -71 6 -34 14 -64 18 -67 7 -5 11 -62 14 -223 1 -27 5 -48 11 -48
5 0 5 -7 0 -17 -5 -10 -8 -66 -8 -125 1 -60 -2 -108 -6 -108 -5 0 -8 -11 -8
-24 0 -14 -4 -27 -8 -30 -5 -3 -9 -26 -10 -53 -3 -70 -12 -103 -38 -151 -13
-23 -24 -51 -24 -60 0 -18 -56 -133 -69 -142 -4 -3 -18 -26 -31 -52 -12 -26
-35 -60 -49 -76 -14 -16 -37 -44 -51 -61 -84 -108 -92 -114 -250 -197 -32 -17
-65 -35 -72 -41 -27 -21 -196 -45 -281 -39 -85 5 -178 23 -187 37 -3 4 -32 18
-65 31 -63 26 -85 39 -181 103 -32 22 -62 38 -66 37 -5 -1 -8 7 -8 18 0 10
-16 32 -35 47 -31 24 -70 80 -136 191 -8 15 -23 49 -32 76 -9 27 -23 56 -31
65 -16 19 -46 111 -76 236 -19 75 -23 121 -24 278 0 104 2 191 7 194 4 2 7 17
7 32 0 58 81 328 108 361 13 16 36 17 317 6z m-1052 -2172 c13 -5 13 -9 -1
-35 -21 -36 -40 -37 -48 -3 -9 34 14 52 49 38z m132 -15 c-3 -5 3 -30 14 -55
12 -26 21 -59 21 -73 0 -15 5 -32 12 -39 6 -6 13 -18 14 -26 1 -7 10 -30 19
-50 10 -20 15 -39 12 -43 -7 -7 -195 -8 -202 -1 -3 2 4 23 15 46 11 22 20 48
20 57 0 8 5 15 10 15 6 0 10 16 10 35 0 19 9 52 20 72 11 21 20 48 20 61 0 13
4 20 10 17 6 -4 8 -11 5 -16z m149 15 c17 -6 21 -40 8 -61 -9 -14 -23 -6 -40
25 -19 34 -5 50 32 36z m-480 -23 c3 -5 0 -14 -8 -20 -8 -7 -17 -22 -20 -35
-3 -13 -21 -40 -41 -61 -31 -34 -35 -36 -41 -19 -4 10 -15 39 -25 63 -21 49
-23 54 -11 47 5 -3 31 3 58 14 54 21 80 24 88 11z m727 -8 c30 -9 57 -16 62
-15 12 3 8 -19 -12 -57 -11 -20 -22 -44 -25 -54 -5 -16 -10 -14 -40 18 -19 19
-37 47 -40 60 -4 14 -11 25 -16 25 -6 0 -10 9 -10 20 0 24 11 25 81 3z m-1081
-63 c0 -5 -4 -10 -10 -10 -5 0 -10 5 -10 10 0 6 5 10 10 10 6 0 10 -4 10 -10z
m1320 -15 c25 -14 61 -32 80 -40 137 -61 140 -69 29 -81 -62 -6 -65 -5 -78 20
-8 14 -18 26 -23 26 -4 0 -8 5 -8 10 0 18 -44 79 -60 84 -13 3 -13 4 0 5 8 0
35 -11 60 -24z m60 21 c0 -2 -7 -6 -15 -10 -8 -3 -15 -1 -15 4 0 6 7 10 15 10
8 0 15 -2 15 -4z m-1352 -91 l-43 -57 -64 7 c-35 3 -68 8 -73 11 -11 7 10 34
26 34 12 0 122 55 141 70 17 14 50 16 53 4 2 -7 -16 -38 -40 -69z m129 20 c1
-24 7 -54 13 -65 6 -11 9 -24 6 -28 -5 -9 -123 2 -133 12 -3 3 10 23 30 45 19
22 40 49 47 60 18 35 35 25 37 -24z m1125 -37 c46 -46 35 -59 -53 -64 -54 -3
-60 -2 -54 14 4 9 15 43 24 75 15 58 16 58 31 35 8 -12 31 -40 52 -60z m-858
-3 c-3 -7 4 -32 16 -55 l21 -42 -28 6 c-15 3 -44 8 -65 12 -36 6 -36 6 -17 25
10 10 19 26 19 34 0 8 5 15 10 15 6 0 10 7 10 16 0 8 5 25 12 37 11 22 12 22
19 -6 4 -16 5 -35 3 -42z m556 -14 c7 -20 20 -41 28 -47 13 -9 4 -13 -44 -22
-32 -5 -60 -9 -61 -8 -1 1 4 20 12 41 8 22 14 58 15 80 l0 40 19 -24 c10 -13
24 -40 31 -60z m50 -185 c0 -8 -4 -17 -9 -21 -5 -3 -12 -18 -16 -34 -3 -16
-17 -41 -31 -56 -13 -14 -22 -30 -19 -35 3 -4 -7 -11 -22 -15 -15 -3 -33 -15
-41 -26 -8 -11 -25 -25 -39 -30 -17 -6 -23 -14 -19 -24 4 -10 -2 -19 -17 -24
-12 -5 -36 -25 -54 -45 -61 -70 -115 -67 -181 8 -17 20 -36 36 -42 36 -6 0
-15 11 -20 25 -5 14 -16 25 -24 25 -9 0 -20 9 -26 21 -7 11 -25 25 -41 31 -16
5 -29 16 -29 24 0 8 -4 14 -8 14 -5 0 -19 21 -31 48 -12 26 -26 55 -32 64 -5
10 -9 20 -9 23 0 3 160 5 355 5 302 0 355 -2 355 -14z m-751 -152 c43 -81 217
-242 286 -264 22 -7 52 -19 67 -26 34 -18 72 -18 88 1 7 8 23 15 37 15 49 0
93 32 232 170 48 47 83 92 95 120 10 25 23 55 29 68 l11 24 28 -34 c15 -18 48
-71 73 -118 25 -47 50 -92 54 -100 37 -65 37 -65 -12 -137 -56 -82 -130 -162
-186 -199 -40 -26 -42 -26 -61 -9 -11 10 -20 23 -20 29 0 11 -56 84 -102 135
-43 46 -108 47 -108 2 0 -11 -26 -44 -57 -74 l-57 -55 -53 51 c-29 29 -53 59
-53 68 0 9 -9 24 -20 34 -17 15 -24 16 -49 5 -34 -13 -122 -115 -156 -177
l-21 -41 -37 22 c-62 38 -130 106 -191 193 -60 87 -60 78 -9 173 26 47 55 103
66 125 11 22 33 55 50 73 l32 33 11 -34 c6 -18 21 -51 33 -73z m-299 -258 c0
-4 -11 -1 -24 7 -13 9 -26 14 -29 11 -6 -7 39 -94 57 -109 6 -5 17 -22 25 -37
17 -33 73 -89 93 -92 9 -1 39 -23 68 -49 29 -26 56 -45 60 -42 5 3 10 0 12 -6
2 -5 25 -11 52 -12 36 -1 51 3 61 17 8 10 20 16 27 14 7 -3 29 3 49 14 43 22
123 15 148 -13 31 -34 39 -46 46 -70 4 -13 11 -29 16 -34 9 -12 4 -275 -6
-322 -8 -36 -33 -44 -55 -18 -7 8 -20 15 -30 15 -10 0 -23 6 -29 14 -13 16
-193 106 -211 106 -5 0 -10 4 -10 8 0 10 -43 34 -225 124 -77 38 -168 83 -202
100 -34 17 -69 31 -77 31 -9 0 -16 4 -16 9 0 4 -10 8 -23 8 -13 0 -32 7 -43
15 -10 8 -25 15 -32 15 -8 0 -28 6 -45 14 -39 18 -172 47 -210 47 -47 0 -80
-23 -90 -61 -10 -38 2 -65 55 -130 16 -19 33 -41 39 -47 5 -7 6 -13 2 -13 -4
0 7 -10 23 -22 17 -13 48 -42 70 -66 21 -24 50 -50 64 -57 14 -8 39 -28 57
-44 18 -17 37 -31 43 -31 6 0 23 -8 38 -19 15 -10 57 -38 95 -62 37 -24 67
-46 67 -49 0 -3 -13 -11 -29 -18 -27 -12 -36 -10 -94 17 -35 16 -69 37 -76 45
-8 9 -23 16 -35 16 -11 1 -46 14 -76 30 -30 17 -63 30 -73 30 -10 0 -30 9 -45
19 -15 11 -40 22 -57 25 -16 2 -53 10 -81 17 -66 15 -117 5 -144 -28 -21 -27
-27 -78 -10 -88 6 -4 24 -35 41 -70 34 -72 93 -144 147 -177 20 -12 52 -36 70
-53 98 -89 108 -100 75 -88 -10 3 -32 19 -50 36 -19 17 -38 27 -47 24 -10 -4
-13 -1 -10 7 12 31 -198 92 -280 81 -23 -2 -66 -7 -98 -10 -62 -6 -135 -29
-216 -68 l-52 -25 -6 22 c-3 12 0 59 5 105 6 45 10 85 9 89 -1 7 4 23 22 69
13 31 0 133 -16 133 -18 0 -50 -65 -59 -120 -4 -25 -11 -50 -16 -55 -14 -19
-67 -164 -74 -205 -4 -22 -11 -42 -16 -46 -5 -3 -9 -22 -9 -43 0 -20 -4 -41
-9 -46 -6 -6 -13 -25 -16 -43 -6 -34 -29 -78 -50 -97 -30 -26 -123 -223 -142
-300 -2 -11 -8 -29 -13 -40 -4 -11 -11 -28 -13 -37 -3 -9 -25 -25 -49 -36 -52
-24 -178 -127 -178 -146 0 -8 -7 -16 -15 -20 -8 -3 -15 -12 -15 -19 0 -8 -7
-20 -15 -27 -23 -19 -48 -78 -42 -100 3 -13 0 -20 -9 -20 -9 0 -14 -10 -14
-27 0 -40 11 -74 22 -71 5 2 30 42 55 88 54 102 105 180 115 180 5 0 8 7 8 15
0 8 7 15 15 15 7 0 18 6 22 13 13 21 65 57 74 52 8 -6 6 -40 -6 -87 -4 -15 -8
-42 -9 -61 -1 -18 -6 -39 -10 -45 -4 -7 -3 -12 3 -12 6 0 5 -12 -3 -32 -8 -23
-12 -86 -11 -201 1 -92 -3 -167 -7 -167 -12 0 -258 134 -373 203 -128 77 -395
256 -395 265 1 16 29 83 68 160 23 45 39 88 37 95 -3 6 5 17 17 22 13 6 23 17
23 25 0 8 5 18 11 22 7 4 21 26 33 48 23 44 23 45 72 103 17 20 28 37 25 37
-4 0 18 30 48 67 31 36 53 70 50 75 -3 4 2 8 10 8 16 0 76 68 76 86 0 7 7 14
15 18 8 3 15 12 15 21 0 8 4 15 9 15 10 0 154 142 250 246 30 33 68 69 84 81
31 23 89 77 124 116 13 14 40 33 60 42 53 25 108 62 151 103 20 18 50 41 66
49 16 8 41 26 55 39 14 13 36 24 48 24 12 0 26 6 30 13 14 22 112 87 131 87
11 0 27 9 37 20 10 11 24 20 30 20 18 0 105 50 105 61 0 5 8 9 18 9 9 0 27 6
39 13 27 15 120 60 189 93 28 13 60 24 70 24 11 0 25 5 30 10 6 6 20 12 31 14
11 3 50 16 85 30 36 14 69 26 75 26 6 0 16 6 22 14 6 7 21 14 34 14 36 2 58 8
65 18 12 16 52 35 62 29 6 -3 18 -2 27 4 13 7 21 5 30 -7 7 -10 13 -21 13 -26z
m-436 -373 c4 -5 11 -8 14 -9 18 -2 100 -27 127 -38 17 -8 41 -17 55 -21 14
-4 34 -13 45 -19 38 -23 134 -58 143 -52 6 3 12 -1 16 -9 3 -8 12 -15 21 -15
8 0 15 -4 15 -10 0 -5 7 -10 15 -10 8 0 48 -17 87 -39 128 -68 197 -101 212
-101 3 0 22 -11 42 -25 20 -14 45 -25 55 -25 11 0 19 -4 19 -10 0 -5 8 -10 19
-10 10 0 24 -6 30 -14 7 -8 36 -25 66 -37 35 -15 52 -26 48 -35 -3 -8 -12 -14
-20 -14 -8 0 -11 -5 -7 -12 5 -8 -6 -9 -41 -4 -27 3 -51 10 -54 15 -4 5 -35
19 -71 31 -75 25 -278 41 -266 21 8 -12 -1 -11 -88 11 -21 5 -46 17 -56 26
-10 9 -54 35 -97 56 -57 29 -104 63 -173 129 -99 94 -200 204 -200 219 0 10
34 11 44 1z m2286 -2 c0 -16 -45 -67 -165 -184 -97 -95 -135 -126 -200 -159
-44 -22 -90 -50 -103 -61 -12 -11 -29 -22 -38 -23 -9 -1 -23 -6 -32 -10 -27
-11 -66 -12 -80 -1 -32 25 -307 -17 -332 -51 -3 -4 -27 -18 -53 -32 -27 -14
-53 -33 -58 -43 -6 -10 -14 -15 -18 -13 -4 3 -18 -6 -31 -19 l-23 -24 24 4
c37 7 149 65 149 77 0 5 7 8 15 5 8 -4 17 -2 20 2 8 14 122 25 205 21 41 -2
92 -4 113 -4 20 0 37 -4 37 -8 0 -4 9 -8 21 -8 11 0 43 -7 70 -16 l50 -17 -63
-40 c-35 -22 -65 -42 -68 -46 -3 -3 -12 -7 -20 -9 -16 -4 -122 -71 -130 -83
-6 -9 -52 -43 -112 -84 -21 -14 -38 -30 -38 -36 0 -15 42 -1 60 20 9 10 20 16
26 14 6 -2 33 11 60 30 27 18 64 39 82 46 22 9 32 20 32 35 0 17 2 18 10 6 8
-12 11 -12 28 3 10 9 23 17 28 17 12 0 87 40 94 50 3 4 30 18 60 31 30 12 57
26 60 30 3 3 23 12 45 19 22 7 60 23 85 36 75 37 173 81 213 93 20 7 37 17 37
22 0 5 11 9 24 9 13 0 27 7 30 16 4 11 13 14 30 10 17 -4 26 -1 30 11 5 12 10
13 18 5 6 -6 17 -8 25 -5 12 5 14 1 8 -18 -9 -32 -56 -100 -72 -106 -7 -3 -13
-10 -13 -17 -1 -15 -30 -39 -230 -192 -41 -32 -79 -64 -83 -71 -4 -7 -16 -13
-25 -13 -16 0 -29 -10 -106 -75 -15 -14 -35 -25 -44 -25 -19 0 -114 -71 -168
-125 -23 -23 -50 -48 -60 -56 -11 -8 -32 -33 -47 -57 -15 -24 -34 -45 -42 -49
-8 -3 -15 -10 -15 -17 0 -19 -85 -102 -141 -137 -86 -55 -145 -75 -293 -103
-145 -27 -201 -50 -201 -81 0 -19 -85 -73 -117 -74 -9 -1 -21 -7 -25 -15 -4
-8 -28 -24 -53 -35 -58 -26 -112 -57 -175 -100 -27 -18 -55 -34 -61 -35 -6 -1
-35 -20 -65 -41 -64 -47 -109 -76 -164 -104 -59 -31 -197 -124 -227 -154 -10
-9 -25 -17 -33 -17 -9 0 -18 -7 -21 -15 -4 -8 -11 -15 -18 -15 -6 0 -45 -31
-86 -68 -95 -87 -109 -95 -148 -81 -65 22 -127 162 -152 344 -6 44 -16 109
-21 145 -27 185 1 615 43 641 7 5 20 9 28 9 8 0 51 14 95 30 44 16 89 30 101
30 11 0 29 7 40 15 10 8 33 15 49 15 17 0 39 7 49 15 11 8 17 15 14 15 -4 0
-13 3 -21 6 -8 3 -22 -2 -31 -12 -9 -9 -20 -14 -23 -10 -4 3 -1 12 5 18 7 7
12 21 12 31 0 16 5 18 28 12 15 -3 35 -14 45 -22 9 -9 17 -11 17 -6 0 6 -7 16
-15 23 -22 18 -19 24 19 43 22 10 47 14 70 10 32 -5 36 -3 36 15 0 14 5 20 14
16 8 -3 17 -1 20 5 4 6 27 8 54 6 26 -3 41 -3 35 1 -17 8 -17 47 0 42 6 -3 14
-15 15 -29 5 -33 22 -49 22 -21 0 20 4 22 33 17 22 -4 54 3 102 21 39 15 85
32 103 38 17 6 32 14 32 18 0 3 9 4 19 1 25 -6 93 26 98 47 3 12 12 16 29 12
13 -2 24 0 24 5 0 5 10 9 23 11 35 2 114 40 121 57 3 8 15 15 26 15 11 0 20 5
20 10 0 6 6 10 13 10 6 0 22 16 35 35 12 19 27 35 32 35 5 0 7 7 3 16 -5 13
-2 15 15 10 14 -5 30 -1 44 8 12 9 30 16 39 16 9 0 22 6 28 14 6 8 32 19 57
25 25 7 63 23 85 36 21 14 45 25 54 25 8 0 15 5 15 10 0 6 7 10 15 10 12 0 99
40 210 97 17 9 66 34 110 56 44 21 105 52 135 67 30 15 72 33 92 39 20 7 42
19 48 27 7 7 21 14 32 14 11 0 45 12 76 26 31 15 78 29 105 32 26 2 47 8 47
13 0 5 9 9 20 9 11 0 20 -4 20 -9z m-2493 -377 c13 -13 18 -13 25 -2 7 10 11
10 22 -4 7 -10 21 -18 31 -18 10 0 26 -6 34 -13 9 -8 45 -24 81 -37 36 -13 70
-26 75 -30 6 -4 28 -13 50 -20 22 -7 48 -19 57 -27 10 -9 28 -13 43 -11 17 4
25 1 25 -8 0 -8 9 -14 20 -14 10 0 24 -8 29 -17 6 -10 11 -14 11 -10 0 5 7 1
16 -7 8 -9 27 -19 42 -22 15 -4 36 -14 47 -24 11 -9 39 -28 63 -40 42 -24 52
-36 30 -37 -37 -2 -88 -17 -179 -54 -94 -39 -101 -40 -119 -24 -10 9 -25 18
-33 19 -15 2 -137 92 -187 138 -41 37 -98 78 -109 78 -6 0 -11 4 -11 10 0 5
-15 24 -33 42 -69 68 -101 133 -70 141 10 3 19 5 21 6 2 0 11 -6 19 -15z m411
-122 c2 -7 -2 -10 -12 -6 -9 3 -16 11 -16 16 0 13 23 5 28 -10z m3417 -12 c-5
-8 -45 -21 -45 -15 0 19 15 32 31 28 10 -3 17 -9 14 -13z m-3012 -4 c54 9 155
8 208 -2 24 -4 48 -8 53 -8 5 -1 11 -6 13 -12 3 -10 -139 -74 -165 -74 -6 0
-36 -12 -65 -26 -51 -25 -124 -34 -136 -16 -9 12 -92 67 -116 76 -19 7 -19 8
5 21 14 8 47 17 73 21 34 5 47 11 43 20 -4 10 1 11 22 3 14 -6 44 -7 65 -3z
m-728 -86 c3 -5 1 -10 -4 -10 -6 0 -11 5 -11 10 0 6 2 10 4 10 3 0 8 -4 11
-10z m-204 -146 c41 -9 86 -25 101 -35 14 -11 31 -19 37 -19 6 0 26 -14 46
-31 38 -34 44 -62 19 -97 -16 -23 -34 -29 -34 -12 0 23 -40 52 -77 57 -33 4
-44 0 -82 -30 -41 -33 -121 -147 -121 -173 0 -6 -9 -31 -19 -55 -18 -40 -30
-107 -47 -244 -8 -74 -13 -288 -6 -300 3 -5 7 -37 8 -71 5 -139 38 -342 67
-409 41 -93 61 -125 79 -125 10 0 23 -11 30 -24 6 -14 24 -30 39 -37 16 -6 29
-15 29 -19 0 -4 13 -13 30 -20 36 -15 113 -6 130 15 7 8 18 15 24 15 6 0 26
14 44 31 18 17 36 28 39 25 4 -4 1 -12 -5 -18 -7 -7 -12 -21 -12 -31 0 -17
-14 -38 -70 -104 l-18 -23 -109 26 c-237 56 -523 152 -790 265 -88 37 -143 66
-143 75 0 8 -3 14 -8 14 -4 0 -8 51 -9 112 -1 62 -2 117 -3 121 0 5 -5 5 -11
1 -6 -3 -15 0 -20 7 -14 22 -11 29 11 29 20 0 26 24 21 91 -1 14 3 45 8 70 7
30 7 47 -1 56 -7 8 -7 13 0 13 5 0 13 17 16 38 3 20 8 46 10 57 2 11 7 38 10
60 12 73 50 193 86 268 24 48 35 57 43 35 5 -14 8 -9 26 57 6 22 29 64 51 93
22 29 40 57 40 63 0 6 5 7 10 4 6 -3 13 1 16 9 3 9 10 16 15 16 4 0 23 16 42
35 19 19 41 35 50 35 9 0 38 12 64 27 47 26 193 69 244 72 15 0 60 -6 100 -15z
m3069 6 c23 -7 36 -7 38 0 4 12 42 14 42 2 0 -12 63 -36 88 -33 13 1 25 -4 28
-13 7 -19 35 -21 52 -4 9 9 12 8 12 -7 1 -23 24 -57 36 -53 17 5 64 -35 64
-54 0 -10 4 -17 10 -13 12 8 50 -16 50 -32 0 -7 5 -13 11 -13 6 0 9 -7 5 -15
-3 -8 -1 -15 4 -15 5 0 12 -10 16 -22 3 -13 12 -30 19 -38 32 -39 99 -189 109
-244 7 -38 11 -48 34 -93 7 -13 12 -34 12 -48 0 -13 5 -56 12 -95 9 -51 16
-70 28 -70 10 0 11 -3 3 -8 -8 -5 -10 -37 -6 -111 5 -90 9 -104 25 -109 20 -5
22 -11 9 -31 -5 -7 -14 -10 -20 -7 -8 5 -11 -27 -11 -112 l0 -119 -87 -41
c-208 -96 -447 -185 -693 -256 -250 -72 -279 -79 -297 -65 -29 24 -70 94 -77
129 -3 19 -3 29 0 23 3 -7 12 -13 20 -13 8 0 14 -3 14 -7 0 -5 21 -21 46 -37
64 -41 153 -43 204 -6 81 59 129 130 179 265 25 69 45 243 45 393 0 39 4 72 9
72 4 0 6 12 3 28 -3 15 -8 70 -11 122 -7 138 -35 320 -55 360 -10 19 -21 46
-25 60 -11 35 -75 131 -104 155 -63 53 -114 47 -165 -17 l-27 -33 -19 24 c-29
33 -25 52 18 92 54 52 108 81 182 100 77 20 123 23 170 9z m-3662 -107 c-14
-17 -38 -16 -38 2 0 19 33 37 42 22 4 -6 2 -17 -4 -24z m1000 -11 c1 -5 -8
-12 -22 -16 -13 -3 -31 -8 -39 -11 -10 -5 -14 1 -12 22 4 57 3 56 37 34 18
-11 34 -24 36 -29z m2160 2 c10 -27 11 -47 4 -65 -11 -32 -4 -48 23 -46 15 2
23 -10 38 -61 12 -39 16 -67 10 -73 -8 -8 -176 111 -228 161 -19 20 -19 20 4
42 37 34 115 86 126 84 6 -2 16 -20 23 -42z m-2538 -84 c0 -5 -5 -10 -11 -10
-5 0 -7 5 -4 10 3 6 8 10 11 10 2 0 4 -4 4 -10z m2300 -43 c0 -7 16 -28 35
-47 19 -19 35 -38 35 -42 0 -20 -49 -4 -83 28 -37 34 -38 36 -21 55 20 22 34
25 34 6z m-53 -137 c6 -8 17 -15 25 -15 55 -2 164 -20 185 -30 l24 -13 -37
-30 c-47 -39 -137 -64 -202 -57 -27 3 -94 7 -150 8 -56 1 -102 3 -102 5 0 2
83 89 152 159 l31 31 31 -21 c17 -12 36 -29 43 -37z m567 14 c41 -14 83 -24
93 -22 14 2 19 -4 21 -27 2 -16 6 -37 9 -45 23 -58 34 -353 18 -485 -6 -49
-18 -150 -29 -250 -4 -28 -18 -84 -32 -125 -14 -41 -28 -86 -31 -100 -9 -37
-54 -88 -86 -100 -36 -12 -67 3 -117 55 -19 20 -51 45 -70 55 -19 10 -48 30
-64 44 -16 14 -35 26 -41 26 -7 0 -18 7 -26 16 -11 13 -92 72 -137 99 -9 5
-30 19 -47 31 -16 12 -40 24 -53 28 -12 4 -34 17 -50 30 -30 24 -160 106 -169
106 -3 0 -27 15 -53 34 -27 19 -67 44 -91 56 -24 12 -49 29 -57 36 -7 8 -20
14 -28 14 -9 0 -30 11 -47 23 -18 13 -52 32 -76 41 -24 9 -55 25 -68 35 l-23
19 23 6 c12 3 34 6 50 6 15 0 35 4 45 9 9 5 52 26 96 47 43 22 95 55 115 75
l36 36 75 -13 c41 -7 137 -15 213 -16 113 -3 139 0 147 12 7 11 10 12 10 2 0
-10 4 -9 16 2 8 9 19 14 24 11 12 -7 92 29 112 51 9 11 21 31 27 45 9 24 13
26 60 21 46 -4 53 -2 81 26 30 30 39 65 20 77 -10 6 8 34 22 35 4 0 41 -12 82
-26z m-4442 -88 c3 -13 1 -32 -4 -41 -15 -25 -35 -1 -30 35 5 36 28 40 34 6z
m5348 -340 c0 -3 -4 -8 -10 -11 -5 -3 -10 -1 -10 4 0 6 5 11 10 11 6 0 10 -2
10 -4z m-2077 -178 c15 -6 41 -26 56 -45 26 -32 60 -43 96 -32 10 3 155 -67
165 -80 7 -9 41 -29 68 -41 12 -5 22 -13 22 -18 0 -5 26 -19 58 -32 31 -12 66
-30 77 -40 11 -9 39 -28 63 -43 28 -18 42 -35 43 -50 0 -12 2 -29 4 -37 2 -8
8 -35 14 -60 22 -104 82 -223 137 -279 19 -19 33 -35 32 -37 -2 -1 -63 -14
-136 -28 -132 -26 -195 -30 -242 -17 -22 6 -17 10 38 26 71 21 84 41 20 30
-24 -4 -63 -8 -88 -9 -69 -3 -99 -15 -106 -42 -3 -12 -3 -27 0 -32 3 -6 -26
-13 -67 -16 -93 -9 -391 -25 -395 -21 -2 1 -5 76 -7 166 -2 90 -9 180 -15 199
-5 19 -10 46 -10 59 0 19 6 12 28 -29 26 -52 38 -62 125 -110 54 -29 166 -25
182 6 6 12 26 35 45 50 52 43 55 46 68 79 17 45 17 105 -1 149 -12 27 -21 36
-32 32 -10 -4 -15 1 -15 14 0 27 -53 52 -121 57 -47 4 -66 0 -124 -28 -87 -41
-141 -92 -154 -144 -9 -33 -9 -25 -5 40 4 44 7 105 9 135 1 30 5 103 10 161
l8 107 61 -14 c34 -8 74 -19 89 -26z m-318 -101 c0 -196 9 -291 30 -323 24
-36 25 -43 24 -179 -1 -158 -3 -212 -10 -219 -4 -4 -4 -24 -2 -46 3 -22 1 -40
-5 -40 -71 0 -445 24 -535 35 -123 14 -161 25 -90 25 22 0 54 7 69 15 16 8 39
15 51 15 30 0 140 66 154 91 24 46 -9 85 -81 93 -20 3 -47 7 -62 11 -27 7 -44
-7 -33 -25 5 -8 11 -8 20 0 10 8 14 8 17 -1 2 -7 22 -17 43 -23 21 -6 40 -16
42 -21 5 -15 -76 -61 -132 -74 -27 -7 -54 -16 -60 -21 -5 -4 -26 -11 -45 -15
-19 -4 -47 -16 -62 -27 -27 -19 -29 -19 -155 2 -71 12 -130 24 -132 26 -7 7
28 75 58 114 26 32 66 98 128 208 13 23 20 42 16 42 -4 0 -3 4 2 8 6 4 19 23
29 43 10 19 24 42 30 50 20 26 93 70 107 64 15 -5 43 12 179 108 45 31 83 57
86 57 2 0 27 11 56 24 73 32 90 38 113 43 21 3 54 17 95 38 53 28 55 24 55
-98z m-2230 24 c7 -12 -12 -24 -25 -16 -11 7 -4 25 10 25 5 0 11 -4 15 -9z
m4687 -6 c0 -5 -5 -11 -11 -13 -6 -2 -11 4 -11 13 0 9 5 15 11 13 6 -2 11 -8
11 -13z m-2002 -229 c0 -6 12 -19 26 -31 34 -27 36 -76 4 -110 -42 -45 -146
-61 -182 -28 -23 21 -24 84 0 111 36 43 152 87 152 58z m90 -36 c0 -5 -2 -10
-4 -10 -3 0 -8 5 -11 10 -3 6 -1 10 4 10 6 0 11 -4 11 -10z"/>
<path d="M3772 8413 c-10 -4 -10 -8 -1 -19 13 -16 29 -10 29 12 0 15 -6 16
-28 7z"/>
<path d="M6970 8383 c1 -18 17 -28 48 -30 17 -1 32 2 32 7 0 6 -9 10 -19 10
-11 0 -23 5 -26 10 -7 12 -35 14 -35 3z"/>
<path d="M3603 8355 c-8 -22 6 -33 17 -15 13 20 12 30 0 30 -6 0 -13 -7 -17
-15z"/>
<path d="M3645 8350 c-3 -5 -1 -10 4 -10 6 0 11 5 11 10 0 6 -2 10 -4 10 -3 0
-8 -4 -11 -10z"/>
<path d="M3480 8254 c0 -9 5 -14 12 -12 18 6 21 28 4 28 -9 0 -16 -7 -16 -16z"/>
<path d="M7270 8241 c0 -6 5 -13 10 -16 6 -3 10 1 10 9 0 9 -4 16 -10 16 -5 0
-10 -4 -10 -9z"/>
<path d="M7490 8085 c0 -9 6 -12 15 -9 8 4 12 10 9 15 -8 14 -24 10 -24 -6z"/>
<path d="M2350 5560 c0 -5 5 -10 11 -10 5 0 7 5 4 10 -3 6 -8 10 -11 10 -2 0
-4 -4 -4 -10z"/>
<path d="M8370 5539 c0 -5 5 -7 10 -4 6 3 10 8 10 11 0 2 -4 4 -10 4 -5 0 -10
-5 -10 -11z"/>
<path d="M8420 5534 c0 -11 6 -13 20 -9 15 5 22 1 28 -14 7 -19 8 -19 29 5 25
28 22 32 -34 32 -32 1 -43 -3 -43 -14z"/>
<path d="M8557 5480 c-52 -10 -53 -14 -10 -40 33 -19 38 -20 49 -6 6 9 16 16
23 16 9 0 9 5 1 20 -6 11 -14 19 -18 19 -4 -1 -24 -5 -45 -9z"/>
<path d="M2440 5290 c-11 -8 -8 -9 13 -4 17 4 27 2 27 -5 0 -6 9 -11 20 -11
23 0 70 -20 88 -37 7 -7 17 -13 22 -13 5 0 10 -10 12 -21 4 -27 46 -45 54 -24
11 28 -6 64 -42 92 -30 22 -48 27 -108 30 -39 2 -78 -1 -86 -7z"/>
<path d="M8200 5278 c-46 -24 -73 -68 -61 -99 5 -13 11 -15 31 -7 15 6 20 12
12 15 -18 7 76 72 115 79 18 3 33 10 33 14 0 5 8 11 18 13 9 3 -10 5 -43 6
-45 1 -72 -5 -105 -21z"/>
<path d="M7921 2047 c8 -8 22 -12 32 -9 23 6 14 15 -19 19 -22 3 -24 2 -13
-10z"/>
<path d="M8094 1888 c-4 -6 3 -19 16 -30 27 -22 36 -23 44 -2 4 11 1 14 -12
10 -22 -7 -47 8 -38 23 4 6 5 11 2 11 -3 0 -8 -5 -12 -12z"/>
<path d="M8356 1603 c-6 -14 -5 -15 5 -6 7 7 10 15 7 18 -3 3 -9 -2 -12 -12z"/>
<path d="M8485 1561 c4 -8 10 -28 12 -44 5 -45 19 -53 18 -11 -1 19 -10 42
-20 52 -10 10 -15 11 -10 3z"/>
<path d="M8525 1423 c-9 -8 -15 -17 -13 -18 6 -6 58 8 58 15 0 16 -30 18 -45
3z"/>
<path d="M2215 1300 c-3 -5 -2 -10 4 -10 5 0 13 5 16 10 3 6 2 10 -4 10 -5 0
-13 -4 -16 -10z"/>
<path d="M8505 1279 c-4 -6 -3 -15 3 -21 6 -6 11 -4 15 6 7 18 -9 31 -18 15z"/>
<path d="M8556 1251 c-4 -7 -5 -15 -2 -18 9 -9 19 4 14 18 -4 11 -6 11 -12 0z"/>
<path d="M8635 1240 c4 -6 11 -8 16 -5 14 9 11 15 -7 15 -8 0 -12 -5 -9 -10z"/>
<path d="M8531 1219 c0 -9 6 -22 14 -29 10 -9 15 -9 15 -1 0 6 -4 11 -9 11 -5
0 -12 8 -14 18 -4 14 -5 14 -6 1z"/>
<path d="M7930 1140 c0 -11 -4 -20 -10 -20 -5 0 7 -30 27 -67 20 -38 45 -85
55 -105 11 -21 24 -38 28 -38 4 0 11 -10 14 -22 7 -22 7 -22 16 -3 12 27 12
85 0 85 -5 0 -7 7 -3 15 14 39 -68 136 -88 104 -4 -8 -9 -7 -15 2 -4 7 -3 14
3 16 7 3 7 11 -1 28 -13 30 -26 32 -26 5z"/>
<path d="M4298 6555 c-3 -3 -16 -8 -29 -10 -13 -3 -37 -8 -54 -12 -16 -4 -32
-7 -35 -8 -60 -13 -82 -20 -120 -35 -25 -9 -72 -27 -105 -40 -33 -12 -82 -32
-110 -45 -27 -12 -61 -26 -75 -30 -39 -12 -190 -113 -190 -128 0 -7 -9 -20
-20 -30 -48 -41 -21 -43 305 -21 101 7 174 6 186 -1 5 -4 9 -3 9 2 0 4 87 8
194 9 182 1 195 2 216 22 22 20 22 24 11 94 -6 40 -10 103 -9 140 4 85 -9 97
-103 98 -36 0 -68 -2 -71 -5z"/>
<path d="M6361 6542 c-20 -16 -23 -25 -18 -55 5 -32 -2 -109 -18 -203 -4 -22
0 -37 15 -54 20 -23 25 -24 213 -27 105 -1 236 -5 290 -7 58 -3 97 -1 97 5 0
6 7 6 18 0 10 -5 87 -12 172 -16 167 -7 161 -9 113 43 -7 7 -13 17 -13 22 0 9
-113 90 -125 90 -3 0 -48 20 -98 44 -111 53 -193 87 -204 84 -4 -1 -21 5 -38
13 -16 9 -50 21 -75 27 -25 6 -74 19 -110 28 -100 26 -190 29 -219 6z"/>
<path d="M5370 4822 c-69 -76 -90 -106 -90 -127 0 -22 5 -24 66 -27 165 -8
213 7 180 57 -24 36 -110 125 -121 125 -5 0 -21 -13 -35 -28z m64 -47 c4 -14
11 -25 16 -25 6 0 10 -4 10 -10 0 -5 -22 -10 -50 -10 -47 0 -63 11 -40 25 6 3
10 14 10 24 0 47 42 44 54 -4z"/>
<path d="M5605 4553 c4 -16 2 -23 -7 -23 -11 0 -11 -2 0 -9 11 -7 11 -9 -2
-14 -8 -3 -14 -14 -14 -24 1 -10 -2 -27 -5 -38 -6 -17 -2 -21 18 -23 18 -1 26
4 30 21 9 36 1 106 -14 119 -11 11 -12 9 -6 -9z"/>
<path d="M5186 4503 c-6 -49 -4 -60 14 -77 12 -13 20 -16 20 -8 0 7 5 10 11 7
17 -11 0 88 -18 102 -8 6 -12 16 -8 22 3 6 2 11 -3 11 -5 0 -12 -26 -16 -57z"/>
<path d="M5300 4541 c-14 -27 -13 -104 2 -119 19 -19 38 6 38 52 0 77 -18 107
-40 67z"/>
<path d="M5483 4544 c-10 -26 -8 -113 3 -124 5 -5 15 -5 23 -1 19 12 18 109
-2 129 -15 14 -17 14 -24 -4z"/>
<path d="M4965 4517 c-10 -38 -2 -100 14 -105 9 -3 11 0 6 8 -5 8 -1 18 9 26
14 10 15 16 6 33 -6 12 -9 25 -6 30 3 5 -1 14 -9 21 -12 10 -15 7 -20 -13z"/>
<path d="M5702 4524 c-17 -18 -15 -43 3 -50 14 -6 13 -8 -1 -19 -21 -15 -11
-48 13 -43 23 4 27 37 11 86 -11 32 -16 37 -26 26z"/>
<path d="M5829 4538 c0 -2 -2 -10 -4 -18 -1 -8 -6 -27 -10 -42 -5 -19 -3 -28
5 -28 7 0 10 -8 7 -20 -6 -25 10 -37 17 -13 9 31 5 123 -5 123 -5 0 -9 -1 -10
-2z"/>
<path d="M4843 4468 c-9 -52 -8 -66 4 -78 12 -13 15 -13 23 0 17 26 9 140 -9
140 -4 0 -12 -28 -18 -62z"/>
<path d="M5087 4498 c-18 -52 -15 -83 8 -83 27 0 34 41 8 48 -16 4 -17 5 0 6
12 1 17 10 17 31 0 40 -18 38 -33 -2z"/>
<path d="M5936 4508 c-11 -44 -3 -128 13 -128 26 1 30 18 18 83 -12 70 -20 83
-31 45z"/>
<path d="M4761 4464 c0 -11 3 -14 6 -6 3 7 2 16 -1 19 -3 4 -6 -2 -5 -13z"/>
<path d="M6040 4471 c0 -6 5 -13 10 -16 6 -3 10 1 10 9 0 9 -4 16 -10 16 -5 0
-10 -4 -10 -9z"/>
<path d="M6060 4419 c0 -5 -4 -7 -10 -4 -16 10 -11 -31 5 -45 13 -11 15 -7 15
24 0 20 -2 36 -5 36 -3 0 -5 -5 -5 -11z"/>
<path d="M4747 4413 c-4 -3 -7 -17 -7 -29 0 -17 4 -22 15 -18 8 4 15 17 15 30
0 23 -10 31 -23 17z"/>
<path d="M4676 4341 c-4 -7 -5 -15 -2 -18 9 -9 19 4 14 18 -4 11 -6 11 -12 0z"/>
<path d="M6120 4335 c0 -16 16 -20 24 -6 3 5 -1 11 -9 15 -9 3 -15 0 -15 -9z"/>
<path d="M4934 4298 c-4 -7 -3 -8 4 -4 7 4 12 1 12 -8 0 -57 256 -99 403 -66
47 11 67 11 115 0 82 -19 226 -14 304 10 59 18 120 62 105 76 -3 3 -38 0 -79
-6 -93 -16 -147 -16 -281 0 -86 10 -132 10 -225 1 -170 -18 -181 -18 -247 -4
-76 16 -102 16 -111 1z"/>
<path d="M3840 5927 c-41 -7 -85 -18 -97 -25 -13 -7 -23 -10 -23 -7 0 3 -10
-1 -22 -9 -12 -9 -32 -16 -44 -16 -12 0 -24 -3 -26 -7 -1 -5 -20 -16 -40 -27
-20 -10 -46 -27 -57 -37 -11 -11 -24 -19 -30 -19 -9 0 -37 -22 -139 -107 -29
-24 -41 -41 -37 -52 3 -8 3 -12 -1 -8 -12 11 -33 -26 -34 -59 0 -67 88 -70
139 -5 17 21 56 58 88 81 32 24 75 56 95 72 20 15 45 28 54 28 10 0 25 7 35
16 33 29 225 69 274 56 23 -7 18 -11 -52 -46 -75 -37 -182 -112 -183 -129 0
-5 -12 -19 -27 -32 -16 -12 -41 -48 -57 -80 -24 -48 -27 -61 -17 -81 13 -29
14 -45 2 -25 -11 17 -31 6 -31 -18 0 -10 -3 -21 -7 -25 -13 -12 -13 -80 0 -88
8 -5 6 -13 -7 -27 -11 -12 -15 -21 -9 -21 5 0 8 -14 5 -30 -2 -17 2 -51 11
-78 8 -26 18 -60 21 -76 4 -16 18 -43 32 -61 13 -17 24 -36 24 -40 0 -5 7 -15
15 -24 8 -9 37 -39 63 -67 26 -28 65 -60 87 -69 22 -10 46 -23 54 -29 8 -6 37
-19 65 -28 l51 -16 -127 1 c-69 1 -124 5 -122 8 2 4 -17 12 -42 18 -25 7 -65
20 -87 31 -64 29 -70 29 -78 -8 -7 -32 -5 -34 36 -52 98 -42 257 -70 397 -70
95 0 293 25 313 39 6 4 37 16 70 26 33 10 67 24 76 31 8 8 20 14 25 14 34 0
189 114 178 131 -3 5 0 8 6 7 11 -3 47 45 49 65 2 16 -24 6 -51 -20 -38 -36
-37 -13 2 63 16 32 38 97 47 144 24 112 18 157 -44 343 -3 11 0 17 9 17 9 0
28 -38 51 -100 20 -55 37 -104 37 -110 0 -5 9 -14 20 -20 17 -9 22 -7 31 17
15 40 13 111 -5 173 -17 60 -50 120 -65 120 -5 0 -15 16 -21 35 -24 72 -191
191 -360 255 -141 53 -380 80 -520 57z m-490 -401 c0 -3 -4 -8 -10 -11 -5 -3
-10 -1 -10 4 0 6 5 11 10 11 6 0 10 -2 10 -4z"/>
<path d="M6749 5935 c-3 -2 -40 -8 -83 -14 -43 -5 -82 -15 -86 -21 -5 -8 -9
-9 -11 -2 -7 19 -163 -41 -288 -109 -68 -37 -173 -131 -184 -163 -5 -16 -20
-39 -34 -50 -53 -47 -91 -225 -62 -290 18 -40 49 -20 65 41 15 59 65 173 76
173 11 0 10 -38 -1 -44 -10 -7 -38 -120 -46 -191 -8 -70 15 -176 59 -269 20
-44 35 -80 33 -82 -1 -1 -17 10 -36 26 -43 38 -56 29 -31 -19 37 -73 172 -163
325 -218 217 -78 503 -82 730 -12 64 20 116 49 88 49 -7 0 -10 10 -7 25 4 21
0 25 -19 25 -13 0 -41 -9 -63 -19 -23 -11 -62 -25 -87 -32 -26 -6 -45 -14 -43
-18 2 -3 -53 -7 -122 -8 l-127 -2 50 17 c28 9 67 27 88 40 21 12 44 22 50 22
16 0 117 102 117 118 0 7 4 12 9 12 15 0 79 113 86 150 3 19 10 39 15 45 11
13 16 87 7 102 -4 6 -1 13 5 16 10 3 10 8 -1 21 -12 14 -12 19 -2 25 11 7 9
40 -6 81 -3 8 -7 24 -8 34 -1 11 -7 22 -13 24 -7 2 -12 19 -12 38 0 19 -4 34
-8 34 -5 0 -17 17 -26 38 -9 20 -38 59 -63 86 -45 46 -143 126 -156 126 -12 0
-132 59 -122 61 6 0 21 2 35 4 62 8 201 -21 300 -62 8 -3 23 -5 32 -4 12 2 16
-3 12 -13 -4 -10 12 -26 49 -49 78 -50 99 -67 161 -136 16 -18 35 -30 42 -27
8 3 14 1 14 -4 0 -6 5 -10 11 -10 6 0 9 7 5 15 -3 9 0 15 9 15 8 0 15 -4 15
-10 0 -5 8 -6 17 -3 11 4 12 8 5 11 -7 2 -12 8 -12 13 0 6 5 7 10 4 12 -8 13
35 1 53 -4 8 -12 14 -17 15 -5 1 -8 8 -8 14 1 7 -17 29 -40 49 -22 20 -58 52
-79 70 -21 19 -42 34 -48 34 -6 0 -26 12 -44 26 -40 30 -104 64 -122 64 -7 0
-36 11 -65 24 -56 25 -96 33 -220 42 -54 4 -78 2 -78 -6 0 -7 -6 -8 -19 -1
-10 6 -20 8 -22 6z"/>
<path d="M5665 1800 c-3 -5 1 -10 9 -10 8 0 18 5 21 10 3 6 -1 10 -9 10 -8 0
-18 -4 -21 -10z"/>
<path d="M4510 1790 c0 -5 7 -10 15 -10 8 0 15 5 15 10 0 6 -7 10 -15 10 -8 0
-15 -4 -15 -10z"/>
<path d="M4357 1737 c-27 -27 -11 -38 31 -20 53 21 58 30 20 34 -22 3 -39 -1
-51 -14z"/>
</g>
</svg>
