<svg id="svg" xmlns="http://www.w3.org/2000/svg" xmlns:xlink="http://www.w3.org/1999/xlink" width="400" height="400" viewBox="0, 0, 400,400"><g id="svgg"><path id="path0" d="M196.595 6.118 C 195.052 6.633,192.532 7.779,190.995 8.664 C 189.458 9.550,187.930 10.399,187.600 10.550 C 187.270 10.701,186.100 11.354,185.000 12.002 C 183.900 12.650,182.280 13.538,181.400 13.977 C 178.246 15.548,173.839 18.022,173.225 18.566 C 172.881 18.871,171.970 19.400,171.200 19.741 C 170.430 20.083,168.810 20.942,167.600 21.652 C 165.497 22.885,162.427 24.603,150.400 31.275 C 147.430 32.923,144.190 34.755,143.200 35.347 C 142.210 35.939,140.680 36.779,139.800 37.215 C 138.920 37.650,137.300 38.546,136.200 39.207 C 135.100 39.867,133.120 40.959,131.800 41.632 C 130.480 42.305,128.320 43.551,127.000 44.400 C 125.680 45.249,124.307 45.956,123.949 45.972 C 123.591 45.987,123.074 46.270,122.800 46.600 C 122.526 46.930,122.127 47.200,121.913 47.200 C 121.699 47.200,121.046 47.533,120.462 47.939 C 119.878 48.345,117.600 49.628,115.400 50.789 C 113.200 51.950,110.950 53.217,110.400 53.604 C 109.850 53.992,108.770 54.609,108.000 54.976 C 107.230 55.343,106.060 55.951,105.400 56.328 C 98.383 60.336,93.952 62.800,93.758 62.800 C 93.629 62.800,93.046 63.136,92.462 63.546 C 91.878 63.957,90.140 64.973,88.600 65.804 C 87.060 66.635,84.810 67.905,83.600 68.626 C 81.177 70.070,74.818 73.514,72.000 74.909 C 71.010 75.399,69.636 76.203,68.946 76.695 C 68.256 77.187,66.906 77.953,65.946 78.397 C 63.972 79.311,60.921 81.003,60.248 81.557 C 60.002 81.760,58.720 82.506,57.400 83.215 C 56.080 83.925,54.100 85.021,53.000 85.652 C 51.900 86.283,50.379 87.087,49.620 87.439 C 48.862 87.790,47.332 88.649,46.220 89.348 C 45.109 90.046,43.750 90.841,43.200 91.113 C 36.884 94.236,34.169 96.801,31.811 101.876 C 29.937 105.907,30.066 103.637,29.606 140.800 C 29.376 159.390,29.015 183.870,28.805 195.200 C 27.853 246.388,27.477 286.202,27.921 288.717 C 28.502 292.005,30.404 295.724,32.733 298.127 C 34.313 299.758,36.388 301.133,45.525 306.604 C 45.896 306.826,47.550 307.804,49.200 308.776 C 50.850 309.748,53.820 311.528,55.800 312.732 C 57.780 313.935,60.660 315.639,62.200 316.518 C 63.740 317.397,65.900 318.696,67.000 319.404 C 68.100 320.112,71.250 322.007,74.000 323.615 C 76.750 325.222,79.630 326.941,80.400 327.433 C 81.170 327.925,83.420 329.234,85.400 330.342 C 87.380 331.449,89.450 332.680,90.000 333.078 C 90.550 333.475,92.080 334.441,93.400 335.225 C 97.903 337.898,104.199 341.658,104.800 342.034 C 107.735 343.871,113.012 347.023,114.800 348.007 C 118.335 349.954,120.464 351.208,122.600 352.601 C 123.700 353.318,125.230 354.267,126.000 354.709 C 132.629 358.513,134.713 359.780,135.426 360.438 C 135.880 360.857,136.420 361.201,136.626 361.203 C 136.832 361.204,139.231 362.554,141.958 364.203 C 144.685 365.851,146.987 367.200,147.074 367.200 C 147.161 367.200,147.720 367.538,148.316 367.951 C 148.912 368.365,152.100 370.281,155.400 372.210 C 161.474 375.761,163.720 377.126,165.684 378.463 C 166.280 378.868,166.914 379.200,167.093 379.200 C 167.272 379.200,168.375 379.830,169.544 380.600 C 170.713 381.370,171.757 382.000,171.863 382.000 C 171.969 382.000,172.808 382.511,173.728 383.136 C 175.526 384.358,184.548 389.645,188.800 391.968 C 193.706 394.650,202.059 393.976,207.800 390.435 C 208.680 389.892,210.390 388.936,211.600 388.310 C 212.810 387.683,214.250 386.914,214.800 386.599 C 215.350 386.285,216.286 385.796,216.881 385.514 C 217.475 385.231,219.815 383.928,222.081 382.618 C 224.346 381.308,226.920 379.848,227.800 379.375 C 228.680 378.901,230.120 378.103,231.000 377.600 C 233.445 376.203,235.967 374.797,238.468 373.435 C 239.715 372.756,242.325 371.276,244.268 370.148 C 246.210 369.019,249.060 367.420,250.600 366.594 C 252.140 365.768,254.120 364.679,255.000 364.174 C 257.639 362.660,262.060 360.241,266.362 357.958 C 267.552 357.327,268.812 356.578,269.162 356.293 C 269.513 356.008,270.610 355.350,271.600 354.831 C 272.590 354.313,274.930 353.032,276.800 351.986 C 278.670 350.940,282.540 348.783,285.400 347.193 C 288.260 345.602,295.910 341.328,302.400 337.693 C 308.890 334.058,315.190 330.558,316.400 329.913 C 319.457 328.285,322.347 326.691,324.000 325.721 C 324.770 325.269,326.750 324.150,328.400 323.234 C 330.050 322.318,331.670 321.394,332.000 321.182 C 332.330 320.969,333.230 320.487,334.000 320.111 C 334.770 319.734,335.850 319.126,336.400 318.759 C 336.950 318.393,339.020 317.231,341.000 316.178 C 342.980 315.126,345.029 313.935,345.554 313.532 C 346.079 313.129,346.726 312.800,346.992 312.800 C 347.258 312.800,348.539 312.122,349.838 311.293 C 351.137 310.464,352.740 309.549,353.400 309.259 C 360.274 306.239,365.619 301.421,367.435 296.608 C 368.807 292.970,368.999 288.627,369.579 248.200 C 370.281 199.288,370.763 167.618,371.241 139.180 C 371.727 110.190,371.725 110.140,369.506 105.698 C 367.466 101.613,362.313 96.957,357.600 94.939 C 357.270 94.797,356.460 94.284,355.800 93.797 C 355.140 93.310,353.646 92.392,352.479 91.756 C 349.080 89.903,348.842 89.760,348.103 89.125 C 347.716 88.793,347.076 88.406,346.680 88.266 C 346.089 88.056,333.268 80.522,331.200 79.169 C 330.458 78.684,329.887 78.338,321.863 73.513 C 318.309 71.376,314.590 69.164,313.600 68.599 C 310.703 66.945,304.136 63.050,297.800 59.228 C 294.320 57.129,288.749 53.846,285.544 52.006 C 284.963 51.673,283.433 50.721,282.144 49.890 C 278.980 47.853,268.404 41.600,268.122 41.600 C 267.997 41.600,267.019 40.970,265.947 40.200 C 264.875 39.430,263.843 38.800,263.653 38.800 C 263.463 38.800,262.811 38.409,262.203 37.931 C 261.595 37.453,260.536 36.759,259.849 36.389 C 257.702 35.232,255.051 33.743,253.740 32.956 C 253.046 32.540,251.696 31.734,250.740 31.164 C 249.783 30.594,247.502 29.199,245.671 28.064 C 243.839 26.929,242.210 26.000,242.049 26.000 C 241.889 26.000,241.047 25.485,240.179 24.855 C 239.310 24.225,237.700 23.204,236.600 22.585 C 233.591 20.891,230.848 19.291,228.400 17.799 C 227.190 17.061,224.940 15.712,223.400 14.800 C 221.860 13.888,219.610 12.540,218.400 11.804 C 207.742 5.323,202.819 4.040,196.595 6.118 M120.400 126.410 C 189.519 127.524,186.828 127.456,187.462 128.090 C 188.244 128.873,187.679 169.199,186.864 170.695 L 186.377 171.591 170.288 171.695 L 154.200 171.800 154.157 188.400 C 154.069 221.818,153.147 274.167,152.635 274.708 C 152.248 275.118,151.677 275.063,149.689 274.428 C 148.332 273.995,146.542 273.518,145.711 273.368 C 144.880 273.218,144.020 272.966,143.800 272.808 C 143.580 272.649,142.230 272.286,140.800 272.000 C 139.370 271.714,138.020 271.373,137.800 271.240 C 137.580 271.108,136.140 270.699,134.600 270.331 C 133.060 269.963,130.405 269.288,128.700 268.831 C 126.995 268.374,124.295 267.654,122.700 267.231 C 121.105 266.808,118.360 266.067,116.600 265.585 C 114.840 265.102,112.590 264.503,111.600 264.254 C 110.610 264.004,109.575 263.654,109.300 263.476 C 108.660 263.062,108.639 253.804,109.255 244.000 C 109.497 240.150,109.769 228.630,109.859 218.400 C 109.949 208.170,110.158 193.500,110.323 185.800 C 110.551 175.229,110.509 171.666,110.151 171.253 C 109.773 170.816,106.561 170.665,94.039 170.494 C 82.126 170.332,78.299 170.161,77.979 169.775 C 77.579 169.292,77.586 166.676,78.079 134.800 C 78.146 130.510,78.346 126.775,78.524 126.500 C 78.935 125.865,85.646 125.851,120.400 126.410 M236.167 128.195 C 239.345 128.307,241.105 128.536,241.446 128.881 C 241.859 129.301,241.874 134.467,241.521 155.922 C 241.264 171.528,241.231 182.589,241.442 182.796 C 242.111 183.452,273.550 183.807,273.767 183.160 C 273.871 182.852,274.100 170.771,274.278 156.314 C 274.557 133.502,274.681 129.947,275.214 129.414 C 276.113 128.515,316.680 129.070,317.796 129.996 C 318.581 130.648,318.570 134.211,317.593 195.800 C 317.387 208.780,317.020 232.360,316.778 248.200 C 316.303 279.325,316.434 277.724,314.400 277.201 C 309.866 276.036,304.736 274.683,303.000 274.194 C 301.900 273.885,299.650 273.274,298.000 272.837 C 296.350 272.401,293.650 271.683,292.000 271.243 C 290.350 270.803,287.920 270.162,286.600 269.818 C 277.686 267.499,273.898 266.373,273.238 265.848 C 272.762 265.468,272.720 261.792,272.961 241.567 C 273.191 222.180,273.147 217.656,272.722 217.311 C 272.121 216.822,241.679 216.419,240.955 216.890 C 240.640 217.095,240.422 224.845,240.213 243.290 C 240.029 259.472,239.763 269.688,239.514 270.157 C 239.075 270.982,197.090 270.812,196.234 269.982 C 196.012 269.768,196.054 257.662,196.339 239.314 C 196.599 222.641,197.089 190.915,197.430 168.812 C 197.856 141.157,198.185 128.459,198.486 128.096 C 198.907 127.589,220.605 127.646,236.167 128.195 " stroke="none" fill="#000000" fill-rule="evenodd"></path></g></svg>