<svg xmlns="http://www.w3.org/2000/svg" width="189" height="90" viewBox="0 0 189 90">
    <g fill="none" fill-rule="evenodd">
        <path fill="#FFF" fill-opacity=".01" d="M0 0h189v90H0z"/>
        <g transform="translate(67.053 1.125)">
            <circle cx="27" cy="27" r="27" fill="#00AED6" fill-rule="nonzero"/>
            <path fill="#FFF" d="M42.75 26.212c-.225-3.375-3.15-6.075-6.525-5.85h-17.1c-.675 0-1.125-.45-1.125-1.124 0-.675.45-1.125 1.125-1.125H36.45c-.113-2.25-1.8-4.613-3.938-4.95-5.062-.9-10.237-.9-15.187 0-2.813.45-4.95 3.262-5.4 5.962a54.306 54.306 0 0 0 0 15.975c.563 3.038 3.037 5.512 6.188 5.962 6.3.788 12.6.788 18.787 0 2.813-.337 4.613-2.924 5.175-5.624.563-3.15.787-6.188.675-9.226zm-5.625 3.713v1.012c0 .675-.45 1.125-1.125 1.125s-1.125-.45-1.125-1.124v-1.013c-.337-.338-.563-.788-.563-1.238 0-.9.788-1.687 1.688-1.687.9 0 1.688.788 1.688 1.688 0 .45-.226.9-.563 1.237z"/>
        </g>
        <g fill="#000" fill-rule="nonzero">
            <path d="M53.328 82.125c1.125 1.688 3.037 2.588 5.062 2.475 2.363 0 4.05-1.463 4.05-3.488v-1.124c-1.237 1.237-3.037 1.912-4.837 1.8-4.388.112-7.988-3.263-8.1-7.65-.113-4.388 3.262-7.988 7.65-8.1h.337c1.8-.113 3.6.562 4.95 1.8v-1.463h4.05V81c0 4.275-3.375 7.2-8.1 7.2-3.15.225-6.075-1.125-8.1-3.6l3.038-2.475zm9-9.112c0-1.688-1.913-3.263-4.05-3.263-2.7 0-4.5 1.688-4.5 4.162-.113 2.138 1.462 4.05 3.712 4.275h.675c2.363 0 4.275-1.462 4.275-3.262v-1.912h-.112zM77.065 65.925c4.95 0 8.438 3.487 8.438 7.987s-3.6 7.988-8.438 7.988c-4.387.225-8.212-3.15-8.437-7.538-.225-4.387 3.037-8.212 7.425-8.437h1.012zm0 3.712a4.273 4.273 0 0 0-4.275 4.276 4.273 4.273 0 0 0 4.275 4.275 4.273 4.273 0 0 0 4.275-4.276c.113-2.25-1.687-4.162-3.825-4.275h-.45zM87.865 66.375h4.05v1.35h.113c1.35-1.238 3.037-1.8 4.837-1.8 4.388.113 7.875 3.712 7.763 8.1a7.928 7.928 0 0 1-7.763 7.762 7.948 7.948 0 0 1-4.725-1.575h-.112v7.538h-4.163V66.375zm8.213 3.262c-2.25 0-4.05 1.576-4.05 3.263v1.912c0 1.8 1.8 3.263 4.162 3.263 2.363 0 4.275-1.912 4.163-4.275 0-2.25-1.913-4.162-4.275-4.162zM112.503 72.45c2.7-.338 3.6-.788 3.6-1.575 0-1.013-1.013-1.575-2.7-1.575-1.688-.112-3.375 1.013-3.713 2.7l-3.937-.788c.562-3.037 3.712-5.287 7.65-5.287 4.387 0 7.087 2.25 7.087 5.85v9.563h-3.937V79.65c-1.238 1.463-3.15 2.25-5.063 2.025-3.262 0-5.625-1.8-5.625-4.5s1.8-4.05 6.638-4.725zm3.825 1.575c-.45.563-1.238.9-3.263 1.238-2.475.45-3.375.9-3.375 1.8s.788 1.35 2.363 1.35c2.362 0 4.275-1.126 4.275-2.588v-1.8zM127.915 80.55l-6.862-14.175h4.612l4.613 9.788h.112l4.5-9.788h4.613l-10.35 21.375h-4.725z"/>
        </g>
    </g>
</svg>
