<?xml version="1.0" standalone="no"?>
<!DOCTYPE svg PUBLIC "-//W3C//DTD SVG 20010904//EN"
 "http://www.w3.org/TR/2001/REC-SVG-20010904/DTD/svg10.dtd">
<svg version="1.0" xmlns="http://www.w3.org/2000/svg"
 width="798.000000pt" height="798.000000pt" viewBox="0 0 798.000000 798.000000"
 preserveAspectRatio="xMidYMid meet">
<metadata>
Created by potrace 1.14, written by Peter Selinger 2001-2017
</metadata>
<g transform="translate(0.000000,798.000000) scale(0.100000,-0.100000)"
fill="#000000" stroke="none">
<path d="M3929 7852 c-2 -6 -19 -14 -38 -17 -19 -3 -42 -10 -52 -16 -11 -5
-19 -6 -19 -2 0 4 -7 -2 -16 -13 -8 -10 -13 -12 -9 -4 5 12 4 12 -7 -1 -7 -9
-23 -19 -36 -23 -12 -4 -19 -12 -16 -18 4 -6 2 -8 -4 -4 -6 3 -13 2 -17 -4 -4
-6 -10 -8 -15 -5 -5 3 -16 -5 -24 -17 -9 -12 -16 -19 -16 -15 0 4 -10 2 -22
-5 -13 -7 -27 -13 -33 -13 -5 -1 -9 -5 -8 -11 1 -5 -8 -11 -19 -11 -12 -1 -24
-6 -27 -10 -3 -5 -24 -17 -46 -28 -22 -11 -41 -23 -43 -27 -2 -5 -9 -8 -15 -8
-6 0 -18 -6 -26 -14 -9 -7 -36 -24 -61 -37 -25 -13 -47 -27 -50 -30 -5 -6 -36
-18 -45 -18 -3 -1 -16 -11 -28 -23 -12 -13 -31 -24 -41 -26 -10 -2 -25 -10
-33 -18 -8 -8 -21 -14 -29 -14 -9 0 -12 -5 -8 -12 5 -8 2 -9 -9 -5 -9 3 -19 2
-22 -4 -4 -5 -11 -6 -17 -3 -6 4 -8 3 -5 -3 4 -6 -5 -15 -18 -21 -14 -7 -25
-16 -25 -21 0 -6 -6 -8 -13 -5 -7 2 -22 -5 -34 -16 -12 -11 -29 -20 -38 -20
-8 0 -15 -4 -15 -10 0 -5 -7 -10 -15 -10 -9 0 -25 -9 -37 -20 -12 -10 -25 -17
-29 -14 -4 2 -10 0 -14 -6 -4 -6 -11 -7 -17 -4 -6 4 -9 3 -6 -2 7 -11 -17 -35
-26 -27 -3 4 -6 2 -6 -4 0 -6 -7 -14 -16 -17 -10 -4 -13 -2 -8 7 4 6 -5 1 -19
-12 -15 -14 -27 -21 -27 -16 0 4 -8 -1 -17 -12 -10 -11 -23 -18 -28 -16 -6 2
-20 -5 -30 -15 -21 -19 -55 -36 -67 -34 -5 1 -8 -3 -8 -8 0 -6 -7 -10 -15 -10
-9 0 -18 -7 -21 -15 -4 -8 -10 -13 -14 -10 -4 3 -13 -2 -20 -10 -7 -8 -21 -15
-32 -15 -10 0 -21 -7 -24 -15 -4 -8 -10 -12 -15 -9 -5 3 -12 -2 -15 -10 -3 -9
-10 -14 -14 -11 -5 3 -14 -1 -22 -8 -25 -24 -68 -47 -68 -37 0 6 -14 -3 -31
-20 -17 -16 -35 -27 -40 -24 -5 3 -9 0 -9 -6 0 -6 -4 -9 -9 -5 -6 3 -14 -3
-20 -12 -6 -10 -11 -14 -11 -10 0 5 -12 -1 -26 -12 -15 -11 -30 -18 -35 -15
-5 3 -9 1 -9 -4 0 -5 -13 -15 -29 -22 -16 -6 -32 -18 -35 -26 -3 -7 -12 -11
-21 -8 -8 3 -15 1 -15 -6 0 -6 -4 -9 -9 -6 -5 3 -12 -1 -15 -10 -3 -8 -10 -12
-16 -9 -5 3 -10 1 -10 -4 0 -6 -5 -11 -11 -11 -6 0 -31 -14 -56 -30 -24 -17
-41 -25 -38 -18 4 7 -2 4 -12 -8 -18 -20 -25 -24 -44 -24 -5 0 -7 -5 -4 -10 4
-6 3 -9 -2 -8 -14 4 -53 -13 -53 -23 0 -6 -5 -7 -10 -4 -5 3 -10 1 -10 -5 0
-6 -4 -8 -10 -5 -5 3 -10 1 -10 -5 0 -6 -5 -8 -10 -5 -6 3 -13 -1 -16 -9 -3
-9 -10 -13 -15 -10 -5 3 -12 -2 -15 -10 -3 -9 -10 -13 -15 -10 -5 3 -9 0 -9
-6 0 -6 -4 -9 -9 -6 -5 3 -14 -1 -21 -9 -7 -8 -16 -12 -21 -9 -5 3 -9 0 -9 -5
0 -6 -7 -11 -15 -11 -8 0 -15 -5 -15 -11 0 -5 -5 -7 -10 -4 -6 3 -13 0 -16 -9
-3 -8 -11 -13 -18 -10 -7 3 -20 -4 -30 -15 -10 -11 -23 -18 -27 -15 -5 3 -9 0
-9 -5 0 -6 -7 -11 -15 -11 -8 0 -15 -6 -15 -12 0 -10 -3 -9 -9 1 -7 11 -10 9
-16 -8 -3 -12 -11 -19 -16 -16 -5 4 -9 1 -9 -5 0 -6 -5 -8 -10 -5 -6 3 -13 0
-16 -9 -3 -9 -12 -12 -21 -9 -11 4 -14 2 -9 -5 5 -8 0 -12 -13 -12 -12 0 -21
-5 -21 -11 0 -5 -5 -7 -10 -4 -6 3 -13 -1 -16 -9 -3 -9 -9 -14 -14 -11 -4 2
-16 -4 -26 -14 -11 -10 -32 -21 -47 -25 -17 -4 -25 -11 -21 -18 5 -7 2 -9 -9
-5 -9 3 -18 0 -21 -9 -3 -9 -10 -12 -16 -9 -5 3 -10 1 -10 -5 0 -6 -4 -9 -8
-6 -5 3 -21 -6 -37 -20 -16 -14 -34 -23 -40 -20 -6 2 -17 -5 -24 -15 -6 -11
-16 -17 -21 -14 -6 3 -10 1 -10 -4 0 -6 -7 -11 -15 -11 -8 0 -15 -5 -15 -11 0
-5 -4 -7 -10 -4 -5 3 -10 1 -10 -4 0 -6 -7 -11 -15 -11 -8 0 -15 -5 -15 -12 0
-6 -3 -8 -7 -5 -3 4 -18 -3 -31 -15 -14 -13 -21 -16 -17 -8 8 13 7 13 -11 0
-39 -30 -109 -103 -107 -111 2 -5 -1 -9 -6 -9 -10 0 -27 -39 -23 -52 1 -5 -3
-8 -9 -8 -5 0 -8 -4 -4 -9 3 -5 1 -12 -5 -16 -5 -3 -10 -15 -10 -26 0 -10 -6
-19 -12 -19 -10 0 -9 -3 1 -9 9 -6 10 -11 2 -15 -6 -4 -8 -13 -4 -19 12 -19
12 -37 1 -37 -7 0 -6 -5 1 -14 9 -11 9 -15 -1 -19 -10 -4 -10 -6 1 -6 11 -1
11 -4 1 -16 -10 -12 -10 -15 0 -15 10 0 10 -3 1 -14 -9 -11 -9 -15 1 -19 10
-4 10 -6 -1 -6 -11 -1 -11 -4 -1 -16 7 -8 8 -15 3 -15 -5 0 -10 -7 -10 -15 0
-8 5 -15 10 -15 5 0 4 -6 -2 -13 -6 -8 -8 -17 -4 -21 11 -11 12 -36 1 -36 -7
0 -6 -5 1 -14 9 -11 9 -15 -1 -19 -10 -4 -10 -6 1 -6 11 -1 11 -4 1 -16 -10
-12 -10 -15 0 -15 10 0 10 -3 1 -14 -9 -11 -9 -15 1 -19 10 -4 10 -6 -1 -6
-11 -1 -11 -4 -1 -16 7 -8 8 -15 3 -15 -5 0 -10 -7 -10 -15 0 -8 5 -15 10 -15
5 0 4 -6 -2 -13 -6 -8 -8 -17 -4 -21 11 -11 12 -36 1 -36 -7 0 -6 -5 1 -14 9
-11 9 -15 -1 -19 -10 -4 -10 -6 1 -6 11 -1 11 -4 1 -16 -10 -12 -10 -15 0 -15
10 0 10 -3 1 -14 -9 -11 -9 -15 1 -19 10 -4 10 -6 -1 -6 -11 -1 -11 -4 -1 -16
7 -8 8 -15 3 -15 -5 0 -10 -7 -10 -15 0 -8 5 -15 10 -15 5 0 4 -6 -2 -13 -6
-8 -8 -17 -4 -21 11 -11 12 -36 1 -36 -7 0 -6 -5 1 -14 9 -11 9 -15 -1 -19
-10 -4 -10 -6 1 -6 11 -1 11 -4 1 -16 -10 -12 -10 -15 0 -15 10 0 10 -3 1 -14
-9 -11 -9 -15 1 -19 10 -4 10 -6 -1 -6 -11 -1 -11 -4 -1 -16 7 -8 8 -15 3 -15
-5 0 -10 -7 -10 -15 0 -8 5 -15 10 -15 5 0 4 -6 -2 -14 -8 -9 -8 -16 -2 -20 7
-5 7 -15 1 -31 -7 -17 -6 -25 1 -25 8 0 7 -5 -1 -15 -8 -10 -9 -15 -1 -15 7 0
8 -8 1 -25 -7 -17 -6 -25 1 -25 8 0 7 -5 -1 -15 -8 -10 -9 -15 -1 -15 7 0 8
-8 1 -25 -7 -17 -6 -25 1 -25 8 0 7 -5 -1 -15 -8 -10 -9 -15 -1 -15 7 0 8 -8
1 -25 -7 -17 -6 -25 1 -25 8 0 7 -5 -1 -15 -8 -10 -9 -15 -1 -15 7 0 8 -8 1
-25 -7 -17 -6 -25 1 -25 8 0 7 -5 -1 -15 -8 -10 -9 -15 -1 -15 7 0 8 -8 1 -25
-7 -17 -6 -25 1 -25 8 0 7 -5 -1 -15 -8 -10 -9 -15 -1 -15 7 0 8 -8 1 -25 -7
-17 -6 -25 1 -25 8 0 7 -5 -1 -15 -8 -10 -9 -15 -1 -15 7 0 8 -8 1 -25 -7 -17
-6 -25 1 -25 8 0 7 -5 -1 -15 -9 -11 -9 -15 -1 -15 9 0 9 -5 1 -20 -8 -15 -8
-20 1 -20 8 0 9 -4 0 -13 -6 -8 -8 -17 -4 -21 11 -11 12 -36 1 -36 -7 0 -6 -5
1 -14 9 -11 9 -15 -1 -19 -10 -4 -10 -6 1 -6 11 -1 11 -4 1 -16 -10 -12 -10
-15 0 -15 10 0 10 -3 1 -14 -9 -11 -9 -15 1 -19 10 -4 10 -6 -1 -6 -11 -1 -11
-4 -1 -16 7 -8 8 -15 3 -15 -5 0 -10 -7 -10 -15 0 -8 5 -15 10 -15 5 0 4 -6
-2 -13 -6 -8 -8 -17 -4 -21 11 -11 12 -36 1 -36 -7 0 -6 -5 1 -14 9 -11 9 -15
-1 -19 -10 -4 -10 -6 1 -6 11 -1 11 -4 1 -16 -10 -12 -10 -15 0 -15 10 0 10
-3 1 -14 -9 -11 -9 -15 1 -19 10 -4 10 -6 -1 -6 -11 -1 -11 -4 -1 -16 7 -8 8
-15 3 -15 -5 0 -10 -7 -10 -15 0 -8 5 -15 10 -15 5 0 4 -6 -2 -13 -6 -8 -8
-17 -4 -21 11 -11 12 -36 1 -36 -7 0 -6 -5 1 -14 9 -11 9 -15 -1 -19 -10 -4
-10 -6 1 -6 11 -1 11 -4 1 -16 -10 -12 -10 -15 0 -15 10 0 10 -3 1 -14 -9 -11
-9 -15 1 -19 10 -4 10 -6 -1 -6 -11 -1 -11 -4 -1 -16 7 -8 8 -15 3 -15 -5 0
-10 -7 -10 -15 0 -8 5 -15 10 -15 5 0 4 -6 -2 -13 -6 -8 -8 -17 -4 -21 11 -11
12 -36 1 -36 -7 0 -6 -5 1 -14 9 -11 9 -15 -1 -19 -10 -4 -10 -6 1 -6 11 -1
11 -4 1 -16 -10 -12 -10 -15 0 -15 10 0 10 -3 1 -14 -9 -11 -9 -15 1 -19 10
-4 10 -6 -1 -6 -11 -1 -11 -4 -1 -16 7 -8 8 -15 3 -15 -5 0 -10 -7 -10 -15 0
-8 5 -15 10 -15 5 0 4 -6 -2 -13 -6 -8 -8 -17 -4 -21 11 -11 12 -36 1 -36 -7
0 -6 -5 1 -14 9 -11 9 -15 -1 -19 -10 -4 -10 -6 1 -6 11 -1 11 -4 1 -16 -10
-12 -10 -15 0 -15 10 0 10 -3 1 -14 -9 -11 -9 -15 1 -19 10 -4 10 -6 -1 -6
-11 -1 -11 -4 -1 -16 7 -8 8 -15 3 -15 -5 0 -10 -7 -10 -15 0 -8 5 -15 10 -15
5 0 4 -6 -2 -14 -8 -9 -8 -16 -2 -20 7 -5 7 -15 1 -31 -7 -17 -6 -25 1 -25 8
0 7 -5 -1 -15 -8 -10 -9 -15 -1 -15 7 0 8 -8 1 -25 -7 -17 -6 -25 1 -25 8 0 7
-5 -1 -15 -8 -10 -9 -15 -1 -15 7 0 8 -8 1 -25 -7 -17 -6 -25 1 -25 8 0 7 -5
-1 -15 -8 -10 -9 -15 -1 -15 7 0 8 -8 1 -25 -7 -17 -6 -25 1 -25 8 0 7 -5 -1
-15 -8 -10 -9 -15 -1 -15 7 0 8 -8 1 -25 -7 -17 -6 -25 1 -25 8 0 7 -5 -1 -15
-8 -10 -9 -15 -1 -15 7 0 8 -8 1 -25 -7 -17 -6 -25 1 -25 8 0 7 -5 -1 -15 -8
-10 -9 -15 -1 -15 7 0 8 -8 1 -25 -7 -17 -6 -25 1 -25 8 0 7 -5 -1 -15 -8 -10
-9 -15 -1 -15 7 0 8 -8 1 -25 -7 -17 -6 -25 1 -25 8 0 7 -5 -1 -15 -10 -12
-10 -15 0 -15 10 0 10 -3 0 -15 -7 -8 -8 -15 -3 -15 5 0 10 -12 11 -27 1 -16
7 -30 13 -31 7 -3 6 -8 -1 -17 -8 -9 -6 -14 5 -19 9 -3 13 -10 10 -16 -3 -5
-1 -10 5 -10 6 0 9 -4 6 -9 -3 -5 1 -11 9 -15 8 -3 12 -12 9 -21 -4 -9 -1 -15
9 -15 8 0 17 -9 20 -20 3 -11 13 -20 22 -20 9 0 13 -4 10 -10 -3 -5 -1 -10 5
-10 6 0 18 -6 25 -12 37 -33 46 -39 55 -33 6 3 10 1 10 -4 0 -6 7 -11 15 -11
8 0 15 -4 15 -9 0 -9 40 -27 49 -22 2 2 7 -3 12 -11 5 -7 13 -13 19 -13 6 0
15 -7 20 -15 5 -8 10 -11 10 -5 0 5 7 0 15 -12 9 -13 22 -20 30 -17 8 4 15 1
15 -6 0 -6 5 -8 10 -5 6 3 13 -1 16 -9 3 -9 10 -13 15 -10 5 3 9 0 9 -7 0 -7
3 -9 7 -6 3 4 15 -1 26 -10 15 -13 19 -14 13 -3 -7 13 -6 13 6 0 21 -24 80
-63 95 -63 7 0 13 -4 13 -9 0 -5 4 -7 9 -3 6 3 13 -1 18 -9 4 -8 15 -16 23
-18 8 -2 21 -9 28 -16 8 -7 18 -10 23 -7 5 4 9 1 9 -4 0 -6 7 -11 15 -11 8 0
15 -4 15 -10 0 -5 7 -10 15 -10 8 0 15 -5 15 -11 0 -5 5 -7 10 -4 5 3 10 -2
10 -11 0 -10 3 -14 7 -11 3 4 17 0 31 -9 13 -9 21 -11 17 -4 -5 8 -1 8 13 -1
12 -7 18 -17 16 -21 -3 -4 4 -8 16 -8 11 0 23 -7 26 -15 4 -8 10 -12 15 -9 5
3 9 0 9 -6 0 -6 4 -9 9 -5 5 3 12 1 16 -5 4 -6 11 -7 17 -4 6 4 8 2 4 -4 -3
-6 8 -15 29 -22 19 -6 35 -16 35 -21 0 -5 7 -9 15 -9 8 0 15 -4 15 -10 0 -5 9
-10 20 -10 11 0 20 -5 20 -12 0 -6 3 -9 6 -5 3 3 15 -3 27 -13 11 -11 24 -17
29 -14 4 3 8 0 8 -6 0 -6 4 -9 9 -6 5 3 14 -1 21 -10 8 -8 37 -27 67 -41 29
-14 53 -30 53 -35 0 -5 4 -6 10 -3 5 3 10 1 10 -5 0 -6 5 -8 10 -5 6 3 13 -1
16 -9 3 -9 10 -13 15 -10 5 3 9 0 9 -6 0 -7 6 -10 13 -7 6 2 19 -4 27 -13 14
-16 43 -30 57 -29 3 1 10 -6 15 -15 5 -9 13 -14 19 -11 5 4 9 1 9 -5 0 -6 4
-9 8 -6 5 3 18 -3 29 -14 12 -10 24 -16 27 -13 3 4 6 1 6 -6 0 -7 4 -9 10 -6
6 3 10 1 10 -5 0 -6 4 -9 8 -6 5 3 21 -7 37 -22 16 -15 30 -25 30 -23 0 9 45
-11 45 -20 0 -6 4 -8 9 -5 5 3 12 -1 15 -10 3 -8 10 -12 16 -9 5 3 10 1 10 -4
0 -6 8 -11 18 -11 10 0 28 -9 39 -19 12 -11 24 -17 27 -14 3 4 6 2 6 -4 0 -6
11 -14 25 -17 14 -4 25 -11 25 -16 0 -6 7 -10 15 -10 8 0 15 -3 15 -7 0 -5 11
-13 25 -20 19 -8 24 -8 19 0 -3 7 0 5 8 -4 7 -9 29 -24 48 -34 19 -9 43 -24
53 -33 9 -8 17 -11 17 -6 0 5 4 5 8 -1 9 -12 61 -44 85 -52 9 -3 17 -10 17
-15 0 -5 5 -6 10 -3 6 3 10 1 10 -5 0 -6 5 -8 10 -5 6 3 10 1 10 -4 0 -6 6
-11 13 -11 7 0 23 -9 35 -20 12 -11 23 -20 24 -20 12 4 37 -15 31 -24 -3 -6
-2 -8 2 -3 5 4 17 -1 28 -10 11 -10 17 -12 13 -5 -7 11 -4 12 13 3 11 -7 21
-16 21 -22 0 -6 5 -7 10 -4 6 3 10 1 10 -5 0 -6 4 -9 9 -5 5 3 15 -1 23 -8 7
-7 27 -20 45 -27 17 -8 30 -17 27 -21 -2 -4 10 -9 27 -13 17 -3 28 -10 24 -16
-4 -6 -3 -9 2 -8 13 4 83 -33 83 -44 0 -5 4 -7 9 -3 5 3 16 -2 24 -10 9 -8 23
-15 31 -15 9 0 16 -4 16 -10 0 -5 7 -10 15 -10 8 0 15 -4 15 -9 0 -7 18 -16
50 -25 3 0 15 -11 28 -24 12 -12 31 -22 42 -22 11 0 20 -4 20 -10 0 -5 9 -10
20 -10 10 0 24 -8 29 -17 6 -10 11 -14 11 -9 0 5 9 1 20 -9 11 -10 23 -16 26
-12 3 3 17 -6 31 -21 13 -15 22 -20 18 -12 -4 8 1 6 9 -4 9 -11 16 -16 16 -11
0 4 8 1 18 -8 9 -8 28 -17 42 -19 14 -1 28 -7 31 -11 9 -12 166 -9 189 3 11 6
25 8 30 5 6 -3 10 -2 10 4 0 10 38 27 53 23 4 -1 7 3 7 9 0 5 4 8 9 4 5 -3 16
4 24 15 7 11 17 17 20 13 4 -3 7 -1 7 5 0 7 11 12 25 12 14 0 28 7 31 15 4 8
13 15 20 15 8 0 17 6 20 13 2 7 14 14 27 14 12 1 23 7 25 13 2 5 10 10 18 10
8 0 14 5 14 11 0 5 5 7 10 4 6 -3 13 1 16 9 3 9 10 14 14 11 5 -3 22 7 39 21
17 14 31 22 31 18 0 -4 8 0 18 9 10 10 22 14 25 11 4 -4 9 1 13 10 3 9 10 13
15 10 5 -3 9 0 9 5 0 6 6 11 14 11 7 0 31 12 52 26 21 15 45 27 52 28 7 2 18
9 23 17 5 8 9 10 9 6 0 -4 10 1 22 12 11 11 25 18 30 15 4 -3 8 0 8 7 0 7 3 9
7 6 3 -4 12 1 20 11 10 11 12 12 8 2 -4 -10 -2 -9 8 3 8 9 20 17 26 17 7 0 21
9 33 20 12 10 24 17 28 15 5 -3 11 2 14 11 3 8 10 12 16 9 5 -3 10 -1 10 5 0
6 5 8 10 5 6 -3 13 1 16 9 3 9 10 13 15 10 5 -3 9 0 9 5 0 6 3 10 8 9 9 -3 55
22 64 35 3 6 15 12 25 13 9 2 19 8 21 14 2 5 8 8 13 4 5 -3 9 0 9 7 0 7 3 10
6 6 4 -3 21 5 39 18 17 14 35 22 38 18 4 -3 7 -1 7 5 0 7 5 12 12 12 6 0 23
10 36 23 14 12 22 16 18 10 -11 -20 1 -15 25 10 12 12 18 15 14 7 -8 -13 -7
-13 11 0 10 8 23 21 27 28 5 7 12 10 18 7 5 -4 9 -2 9 3 0 5 19 17 43 28 23
10 45 23 49 29 4 5 8 6 8 2 0 -5 7 -2 15 5 36 33 46 39 55 33 6 -3 10 -1 10 4
0 6 7 11 15 11 8 0 15 5 15 10 0 6 6 10 14 10 7 0 19 7 26 15 7 8 16 12 21 9
5 -3 9 0 9 6 0 6 5 8 10 5 6 -3 10 -1 10 4 0 6 7 11 15 11 8 0 15 5 15 11 0 5
5 7 10 4 6 -3 10 -1 10 4 0 6 7 11 15 11 8 0 31 15 52 33 20 17 34 26 29 19
-6 -10 -2 -10 18 0 15 6 24 13 22 16 -3 2 17 16 44 29 28 14 50 29 50 34 0 6
5 7 12 3 6 -4 17 1 25 11 7 11 13 15 13 10 0 -5 7 0 16 11 8 10 12 12 8 4 -6
-11 -2 -10 13 3 11 9 25 17 31 17 7 0 12 5 12 11 0 5 4 8 9 5 5 -3 12 1 15 10
3 8 10 12 16 9 5 -3 10 -1 10 4 0 6 4 10 8 9 5 -2 31 11 58 28 27 16 52 30 55
30 4 -1 16 7 26 17 11 9 23 14 26 10 4 -3 7 0 7 7 0 7 3 11 6 7 8 -8 33 16 27
25 -2 4 2 5 10 2 8 -3 29 8 48 23 18 15 29 21 24 13 -6 -11 -3 -10 12 2 11 10
24 18 30 18 5 0 18 9 28 20 10 11 22 17 26 14 5 -3 9 0 9 6 0 6 4 9 9 6 5 -3
14 1 21 9 7 8 16 12 21 9 5 -3 9 0 9 5 0 6 7 11 16 11 8 0 13 4 10 9 -3 5 1
12 10 15 9 3 12 2 8 -5 -3 -6 3 -5 15 3 12 7 21 16 21 20 0 5 7 8 15 8 8 0 15
5 15 10 0 6 7 10 15 10 9 0 25 9 37 20 12 10 25 17 30 14 4 -3 8 0 8 7 0 7 3
9 7 6 3 -4 12 1 20 11 8 9 11 11 8 4 -6 -11 -3 -11 14 0 12 7 21 16 21 21 0 4
5 5 10 2 6 -3 10 -1 10 4 0 6 7 11 15 11 8 0 24 9 35 20 11 11 27 20 36 20 8
0 13 4 10 9 -4 5 2 8 11 7 10 -2 28 7 42 20 14 13 28 21 33 18 4 -3 8 0 8 6 0
6 4 9 9 5 6 -3 15 4 21 15 6 11 15 18 21 15 5 -4 12 1 15 9 3 9 10 14 14 11 7
-4 43 32 92 93 9 11 18 29 20 39 2 10 6 20 9 23 4 3 8 19 10 35 2 17 7 36 13
43 6 8 9 698 9 1810 0 1605 -2 1801 -15 1822 -9 14 -14 33 -13 43 2 9 -1 17
-6 17 -5 0 -9 7 -9 15 0 8 -4 15 -9 15 -5 0 -12 11 -15 25 -4 14 -11 23 -16
20 -6 -3 -7 1 -4 9 3 9 2 16 -2 16 -5 0 -23 14 -41 30 -18 17 -37 30 -42 30
-6 0 -11 4 -11 9 0 7 -27 19 -46 19 -3 1 -14 10 -24 22 -11 12 -23 19 -28 16
-4 -2 -21 6 -36 19 -16 14 -33 22 -37 19 -5 -3 -9 0 -9 5 0 6 -7 11 -15 11 -8
0 -15 5 -15 10 0 6 -5 10 -11 10 -6 0 -25 10 -42 22 -19 13 -28 16 -23 7 4 -7
-1 -4 -10 9 -9 12 -27 22 -41 22 -17 0 -27 7 -30 20 -4 16 -9 18 -19 10 -10
-9 -16 -5 -28 17 -8 15 -15 24 -16 19 0 -5 -8 -2 -17 5 -15 12 -16 12 -8 -1 4
-8 -3 -5 -17 8 -13 12 -29 22 -35 22 -6 0 -13 3 -15 8 -5 11 -88 54 -88 45 0
-4 -5 0 -11 10 -5 9 -17 17 -24 17 -8 0 -15 5 -15 11 0 5 -4 8 -9 5 -5 -3 -11
1 -15 9 -3 8 -13 15 -23 15 -10 0 -29 9 -43 20 -14 11 -31 20 -37 20 -7 0 -13
5 -13 11 0 5 -4 7 -10 4 -5 -3 -10 -2 -10 3 0 5 -18 17 -40 27 -22 10 -40 22
-40 27 0 5 -4 6 -10 3 -5 -3 -10 -2 -10 3 0 10 -80 48 -93 44 -5 -1 -6 2 -2 8
3 5 -1 10 -9 10 -9 0 -16 5 -16 11 0 5 -4 7 -10 4 -5 -3 -10 -2 -10 4 0 6 -11
13 -25 17 -14 3 -25 10 -25 16 0 5 -5 6 -10 3 -6 -3 -13 1 -16 9 -3 9 -10 13
-15 10 -5 -3 -9 0 -9 6 0 6 -4 9 -8 6 -5 -3 -21 6 -37 20 -31 27 -40 30 -29
12 8 -14 -36 20 -48 37 -4 6 -8 6 -8 2 0 -5 -12 1 -26 12 -15 11 -30 18 -35
15 -5 -3 -9 0 -9 5 0 6 -6 11 -13 11 -7 0 -23 9 -35 20 -12 11 -26 20 -32 20
-6 0 -18 7 -27 15 -8 8 -18 13 -23 10 -4 -3 -11 2 -14 11 -3 8 -10 12 -16 9
-5 -3 -10 -1 -10 5 0 6 -4 9 -9 6 -4 -3 -16 3 -26 14 -10 11 -22 17 -26 14 -5
-3 -9 -1 -9 4 0 5 -13 15 -30 22 -16 7 -30 17 -30 22 0 5 -4 6 -10 3 -5 -3
-10 -1 -10 5 0 6 -4 8 -10 5 -5 -3 -10 -1 -10 4 0 6 -3 10 -7 9 -11 -2 -73 36
-73 45 0 5 -4 5 -10 2 -5 -3 -10 -1 -10 5 0 6 -4 8 -10 5 -5 -3 -10 -1 -10 5
0 6 -4 8 -10 5 -5 -3 -10 -1 -10 4 0 6 -9 11 -20 11 -11 0 -23 7 -26 15 -4 8
-12 15 -19 15 -8 0 -20 6 -27 13 -15 15 -49 31 -60 29 -5 -1 -8 3 -8 9 0 5 -4
7 -10 4 -5 -3 -10 1 -10 10 0 10 -5 15 -13 12 -8 -3 -27 6 -42 19 -15 13 -32
21 -36 18 -5 -3 -9 -1 -9 4 0 5 -13 15 -30 22 -16 7 -30 16 -30 21 0 5 -9 9
-20 9 -11 0 -20 4 -20 10 0 5 -3 9 -7 9 -20 -3 -34 2 -29 10 3 5 -14 17 -39
28 -25 10 -45 22 -45 26 0 5 -4 5 -10 2 -5 -3 -10 -2 -10 3 0 4 -16 14 -35 22
-19 8 -35 17 -35 22 0 4 -7 8 -15 8 -8 0 -15 5 -15 11 0 5 -4 8 -9 5 -4 -3
-16 3 -26 14 -10 11 -22 17 -26 14 -5 -3 -9 0 -9 6 0 7 -7 10 -15 6 -9 -3 -15
0 -15 10 0 8 -4 12 -10 9 -5 -3 -10 -1 -10 5 0 7 -7 10 -15 6 -8 -3 -15 -1
-15 4 0 6 -7 10 -15 10 -8 0 -15 5 -15 11 0 5 -4 8 -9 5 -5 -3 -12 1 -15 9 -3
8 -9 14 -13 13 -12 -3 -63 24 -63 34 0 4 -7 8 -15 8 -8 0 -15 5 -15 11 0 5 -4
7 -10 4 -5 -3 -10 -1 -10 5 0 7 -6 10 -12 8 -7 -3 -21 4 -32 14 -11 10 -26 18
-33 18 -7 0 -13 5 -13 11 0 5 -4 7 -10 4 -5 -3 -10 -1 -10 5 0 6 -4 8 -10 5
-5 -3 -10 -2 -10 3 0 9 -39 30 -52 28 -3 0 -17 9 -30 21 -13 12 -32 23 -43 25
-11 1 -26 9 -34 16 -12 11 -15 11 -22 0 -5 -7 -9 -8 -9 -3 0 6 -8 11 -18 12
-30 2 -47 8 -55 18 -6 6 -10 6 -14 -2 -3 -9 -10 -10 -24 -3 -14 8 -19 7 -19
-2 0 -10 -2 -10 -9 1 -5 8 -10 9 -12 3z m-1259 -2422 c0 5 13 5 30 0 17 -5 30
-5 30 0 0 5 13 5 30 0 17 -5 30 -5 30 0 0 5 13 5 30 0 17 -5 30 -5 30 0 0 5
13 5 30 0 17 -5 30 -5 30 0 0 5 13 5 30 0 17 -5 30 -5 30 0 0 5 13 5 30 0 17
-5 30 -5 30 0 0 5 13 5 30 0 17 -5 30 -5 30 0 0 5 13 5 30 0 17 -5 30 -5 30 0
0 5 13 5 30 0 17 -5 30 -5 30 0 0 5 13 5 30 0 17 -5 30 -5 30 0 0 5 13 5 30 0
17 -5 30 -5 30 0 0 5 13 5 30 0 17 -5 30 -5 30 0 0 5 13 5 30 0 17 -5 30 -5
30 0 0 5 13 5 30 0 17 -5 30 -5 30 0 0 5 13 5 30 0 17 -5 30 -5 30 0 0 5 13 5
30 0 17 -5 30 -5 30 -1 0 10 70 2 97 -11 18 -9 20 -14 12 -25 -9 -10 -8 -13 2
-13 10 0 10 -3 1 -12 -8 -8 -9 -15 -1 -25 9 -9 8 -13 0 -13 -8 0 -9 -5 -1 -19
7 -14 7 -22 0 -26 -8 -5 -8 -11 -1 -19 7 -9 7 -16 -1 -24 -9 -9 -9 -12 0 -12
10 0 10 -5 2 -20 -8 -15 -8 -20 2 -20 9 0 9 -3 -2 -10 -8 -5 -10 -10 -5 -10 6
0 11 -9 11 -20 0 -11 -4 -20 -8 -20 -5 0 -4 -8 1 -19 6 -10 7 -21 4 -25 -10
-10 -12 -36 -4 -36 9 0 8 -31 -3 -48 -4 -7 -2 -12 4 -12 7 0 8 -6 0 -19 -7
-14 -6 -21 3 -25 9 -5 9 -7 0 -12 -9 -4 -10 -11 -3 -24 7 -13 7 -21 0 -25 -8
-5 -7 -11 1 -21 9 -11 9 -14 0 -14 -8 0 -9 -5 -2 -18 7 -13 7 -22 0 -29 -8 -8
-7 -13 1 -18 8 -5 8 -10 -1 -21 -9 -11 -9 -14 0 -14 9 0 9 -5 1 -20 -8 -15 -8
-20 2 -20 9 0 9 -3 -2 -10 -8 -5 -10 -10 -5 -10 6 0 11 -9 11 -20 0 -11 -4
-20 -8 -20 -5 0 -4 -8 1 -18 6 -11 6 -23 1 -28 -4 -5 -10 -20 -12 -33 -3 -25
-14 -30 -80 -34 -20 -2 -34 1 -32 5 3 4 -6 4 -20 -2 -18 -7 -26 -6 -26 1 0 8
-5 7 -15 -1 -12 -10 -15 -10 -15 0 0 10 -3 10 -15 0 -12 -10 -15 -10 -15 0 0
10 -3 10 -15 0 -11 -9 -15 -9 -15 -1 0 9 -5 9 -21 0 -15 -8 -19 -8 -15 0 10
15 -7 14 -22 -1 -9 -9 -12 -9 -12 1 0 11 -3 11 -15 1 -12 -10 -15 -10 -15 0 0
10 -3 10 -15 0 -12 -10 -15 -10 -15 1 0 10 -3 10 -12 1 -8 -8 -15 -9 -25 -1
-10 9 -13 8 -13 -1 0 -10 -3 -10 -15 0 -12 10 -15 10 -15 0 0 -10 -3 -10 -15
0 -12 10 -15 10 -16 -1 0 -9 -2 -10 -5 -2 -4 8 -14 9 -35 3 -18 -5 -29 -5 -29
1 0 6 -6 7 -12 3 -15 -10 -48 -13 -43 -4 2 3 -5 6 -16 6 -12 0 -18 -5 -15 -13
3 -7 0 -13 -6 -13 -9 0 -9 -3 0 -12 8 -8 9 -15 1 -25 -9 -10 -8 -13 1 -13 10
0 10 -3 0 -15 -10 -12 -10 -15 0 -15 10 0 10 -3 1 -14 -8 -10 -9 -16 -1 -21 7
-4 7 -12 0 -26 -8 -14 -7 -19 1 -19 9 0 9 -3 0 -14 -8 -9 -8 -16 -2 -20 7 -5
7 -15 1 -31 -7 -17 -6 -25 1 -25 8 0 7 -5 -1 -15 -7 -8 -8 -15 -3 -15 5 0 10
-7 10 -15 0 -8 -5 -15 -10 -15 -5 0 -4 -7 3 -15 10 -12 10 -15 -1 -16 -11 0
-11 -2 -1 -6 10 -4 10 -8 1 -19 -8 -9 -8 -18 -2 -26 6 -7 10 -29 10 -49 0 -20
3 -43 6 -52 4 -10 2 -17 -4 -17 -6 0 -7 -5 -4 -11 8 -12 9 -178 1 -186 -3 -3
-1 -14 5 -24 5 -11 6 -19 1 -19 -4 0 -6 -24 -3 -52 4 -29 4 -77 1 -106 -3 -29
-2 -59 3 -67 5 -9 4 -15 -3 -15 -6 0 -8 -4 -5 -10 7 -12 9 -820 1 -827 -3 -3
-1 -14 5 -24 5 -11 6 -19 2 -19 -4 0 -8 -24 -8 -54 0 -30 3 -52 8 -49 4 2 7
-1 7 -6 0 -6 -4 -11 -8 -11 -5 0 -8 -10 -8 -21 1 -17 -5 -22 -26 -23 -16 -1
-28 2 -28 7 0 4 -4 5 -10 2 -5 -3 -10 0 -10 7 0 9 -3 9 -10 -2 -6 -10 -10 -11
-10 -2 0 7 -13 12 -30 12 -16 0 -30 5 -30 10 0 6 -5 10 -11 10 -5 0 -7 -5 -3
-11 3 -6 -6 -3 -22 7 -21 14 -26 15 -19 4 7 -12 6 -13 -7 -3 -8 7 -18 10 -21
6 -4 -3 -7 -2 -7 3 0 9 -20 14 -67 17 -13 0 -23 5 -23 9 0 4 -13 8 -29 8 -17
0 -33 5 -36 10 -4 6 -10 8 -15 5 -5 -3 -11 -1 -14 4 -3 5 -15 7 -26 4 -13 -3
-20 0 -20 8 0 11 -2 11 -10 -1 -6 -9 -10 -10 -10 -3 0 6 -8 12 -17 12 -38 1
-53 5 -53 12 0 5 -7 5 -17 2 -9 -4 -14 -2 -10 3 3 6 -9 9 -29 9 -19 -1 -34 3
-34 8 0 5 -9 7 -20 4 -11 -3 -20 -1 -20 5 0 5 -4 6 -10 3 -5 -3 -10 0 -10 7 0
9 -3 9 -10 -2 -6 -10 -10 -11 -10 -2 0 7 -13 12 -30 12 -16 0 -30 5 -30 10 0
6 -5 10 -11 10 -5 0 -7 -6 -3 -12 6 -10 4 -10 -8 0 -9 7 -20 11 -24 10 -5 -2
-20 5 -34 15 -13 9 -19 17 -12 17 8 0 9 7 2 24 -5 15 -5 27 3 35 8 8 8 11 -1
11 -8 0 -9 7 -2 26 7 16 7 23 0 19 -7 -4 -7 3 0 19 7 18 6 26 -1 26 -8 0 -8 4
0 14 8 10 9 16 1 21 -7 4 -7 12 0 26 8 14 7 19 -1 19 -9 0 -9 3 0 14 8 10 9
16 1 21 -7 4 -7 12 0 26 8 14 7 19 -1 19 -8 0 -8 4 1 15 8 10 9 15 1 15 -7 0
-8 8 -1 25 7 18 6 25 -2 25 -9 0 -9 3 0 12 8 8 9 15 1 25 -8 9 -8 13 -1 13 8
0 11 90 11 290 -1 161 -5 290 -10 290 -5 0 -4 11 1 26 7 16 7 23 0 19 -7 -4
-7 3 0 19 7 18 6 26 -1 26 -8 0 -7 5 1 15 8 10 9 15 1 15 -7 0 -8 8 -1 25 7
17 6 25 -1 25 -8 0 -8 4 0 14 8 10 9 16 1 21 -7 4 -5 11 5 21 8 9 15 21 15 27
0 9 -2 9 -8 0 -4 -6 -7 103 -7 242 0 139 2 252 5 250 3 -2 6 5 6 15 0 10 -3
17 -7 14 -4 -2 -9 1 -11 8 -5 14 -48 19 -48 5 0 -5 -7 -4 -15 3 -12 10 -15 10
-15 -1 0 -9 -3 -10 -8 -4 -8 12 -32 13 -49 2 -8 -5 -13 -3 -13 4 0 8 -4 8 -15
-1 -12 -10 -15 -10 -15 0 0 10 -3 10 -15 0 -12 -10 -15 -10 -15 0 0 9 -4 9
-13 2 -8 -7 -18 -7 -27 -2 -9 5 -19 5 -27 -2 -9 -7 -13 -7 -13 2 0 10 -3 10
-15 0 -11 -9 -15 -9 -15 -1 0 9 -5 9 -21 0 -15 -8 -19 -8 -15 0 10 15 -7 14
-22 -1 -9 -9 -12 -9 -12 1 0 11 -3 11 -15 1 -12 -10 -15 -10 -15 0 0 10 -3 10
-15 0 -12 -10 -15 -10 -15 1 0 10 -3 10 -12 1 -8 -8 -15 -9 -25 -1 -10 9 -13
8 -13 -1 0 -10 -3 -10 -15 0 -12 10 -15 10 -15 0 0 -10 -3 -10 -15 0 -12 10
-15 10 -16 -1 0 -10 -2 -10 -5 -2 -4 8 -13 9 -28 3 -16 -6 -29 -3 -47 11 -13
10 -18 19 -11 19 10 0 10 5 2 20 -8 14 -8 20 0 20 6 0 8 4 5 10 -5 8 -8 415
-3 473 1 9 6 17 12 17 6 0 5 5 -2 12 -8 8 -9 15 -1 25 9 9 8 13 0 13 -7 0 -9
5 -6 10 3 6 0 10 -7 10 -9 0 -10 3 -2 8 6 4 8 16 4 27 -4 10 -1 31 7 45 8 16
9 26 2 28 -6 3 -6 9 2 18 7 9 8 14 1 14 -5 0 -12 20 -13 44 -2 24 -1 42 2 40
4 -2 10 3 13 11 5 14 69 15 526 13 286 -2 520 0 520 4 0 4 14 3 30 -2 17 -5
30 -5 30 0z m1380 0 c0 5 13 5 30 0 17 -5 30 -5 30 0 0 5 13 5 30 0 17 -5 30
-5 30 0 0 5 13 5 30 0 17 -5 30 -5 30 0 0 5 13 5 30 0 17 -5 30 -5 30 0 0 5
13 5 30 0 17 -5 30 -5 30 0 0 5 13 5 30 0 17 -5 30 -5 30 0 0 5 13 5 30 0 17
-5 30 -5 30 0 0 5 13 5 30 0 17 -5 30 -5 30 0 0 5 13 5 30 0 17 -5 30 -6 30
-2 0 8 124 6 145 -2 8 -3 15 -2 15 2 0 4 9 8 20 8 10 0 17 -2 15 -4 -2 -3 6
-13 18 -23 12 -10 17 -18 10 -19 -8 0 -9 -9 -3 -30 5 -17 5 -30 0 -30 -5 0 -5
-13 0 -30 5 -17 5 -30 0 -30 -5 0 -5 -13 0 -30 5 -17 5 -30 0 -30 -5 0 -5 -13
0 -30 5 -16 5 -30 1 -30 -5 0 -5 -18 -1 -40 4 -22 4 -40 -1 -40 -4 0 -4 -13 1
-30 5 -17 5 -30 0 -30 -5 0 -5 -13 0 -30 5 -17 5 -30 0 -30 -5 0 -5 -13 0 -30
5 -17 5 -30 0 -30 -5 0 -5 -13 0 -30 5 -17 5 -30 0 -30 -5 0 -7 -6 -5 -12 8
-22 11 -128 3 -128 -3 0 -3 -13 2 -30 5 -17 5 -30 0 -30 -5 0 -5 -13 0 -30 5
-17 5 -30 0 -30 -5 0 -5 -13 0 -30 5 -16 5 -30 1 -30 -5 0 -5 -18 -1 -40 4
-22 4 -40 -1 -40 -4 0 -4 -13 1 -30 6 -20 5 -30 -2 -30 -6 0 -3 -9 7 -20 14
-15 21 -17 32 -9 9 8 13 8 13 0 0 -7 8 -8 25 -1 17 7 25 6 25 -1 0 -8 5 -7 15
1 12 10 15 10 15 0 0 -10 3 -10 15 0 12 10 15 10 15 0 0 -10 3 -10 15 0 12 10
15 10 15 0 0 -10 3 -10 15 0 11 9 15 9 15 1 0 -7 5 -9 11 -6 18 12 68 12 72 1
2 -7 10 -6 20 3 14 11 17 11 18 0 0 -11 2 -11 6 -1 4 10 8 10 19 1 8 -6 14 -7
14 -2 0 5 7 10 15 10 8 0 15 -5 15 -10 0 -5 7 -4 15 3 10 8 15 9 15 1 0 -7 8
-8 25 -1 16 6 26 6 31 -1 4 -6 11 -6 20 2 11 9 14 9 14 0 0 -8 5 -9 19 -1 14
7 22 7 26 0 5 -8 11 -7 21 1 10 8 14 8 14 0 0 -8 5 -8 19 1 11 7 17 17 14 22
-10 15 -9 1026 0 1026 5 0 6 4 3 9 -7 11 18 33 27 24 4 -3 7 -1 7 5 0 7 10 8
30 2 17 -5 30 -5 30 0 0 5 13 5 30 0 17 -5 30 -5 30 0 0 5 13 5 30 0 17 -5 30
-5 30 0 0 5 13 5 30 0 17 -5 30 -5 30 0 0 5 13 5 30 0 17 -5 30 -5 30 0 0 5
13 5 30 0 17 -5 30 -5 30 0 0 5 13 5 30 0 17 -5 30 -5 30 0 0 5 13 5 30 0 17
-5 30 -5 30 0 0 5 13 5 30 0 17 -5 30 -5 30 0 0 5 13 5 30 0 17 -5 30 -5 30 0
0 5 13 5 30 0 17 -5 30 -5 30 -1 0 4 23 5 50 1 28 -4 50 -4 50 0 0 11 59 -1
69 -14 11 -13 20 -146 9 -146 -3 0 -3 -13 2 -30 5 -16 5 -30 1 -30 -5 0 -7
-10 -5 -22 8 -46 9 -158 2 -158 -3 0 -3 -13 2 -30 5 -16 5 -30 1 -30 -5 0 -7
-10 -5 -22 8 -46 9 -158 2 -158 -3 0 -3 -13 2 -30 5 -16 5 -30 1 -30 -5 0 -7
-10 -5 -22 8 -46 9 -158 2 -158 -3 0 -3 -13 2 -30 5 -16 5 -30 1 -30 -5 0 -7
-10 -5 -22 8 -46 9 -158 2 -158 -3 0 -3 -13 2 -30 5 -16 5 -30 1 -30 -4 0 -6
-15 -4 -32 7 -73 8 -228 1 -228 -4 0 -3 -13 2 -30 5 -16 5 -30 1 -30 -5 0 -7
-10 -5 -22 8 -46 9 -158 2 -158 -3 0 -3 -13 2 -30 5 -16 5 -30 1 -30 -5 0 -7
-10 -5 -22 8 -46 9 -158 2 -158 -3 0 -3 -13 2 -30 5 -16 5 -30 1 -30 -5 0 -7
-10 -5 -22 8 -46 9 -158 2 -158 -3 0 -3 -13 2 -30 5 -16 5 -30 1 -30 -5 0 -7
-10 -5 -22 8 -46 9 -158 2 -158 -3 0 -3 -13 2 -30 5 -16 5 -30 1 -30 -5 0 -7
-10 -5 -22 8 -46 9 -158 2 -158 -3 0 -3 -13 2 -30 5 -16 5 -30 1 -30 -5 0 -7
-10 -5 -22 7 -42 9 -158 3 -158 -3 0 -4 -13 -1 -29 6 -40 -11 -42 -112 -15
-82 21 -103 26 -178 41 -16 3 -28 9 -28 14 0 4 -9 6 -20 4 -11 -2 -20 2 -20 8
0 7 -4 6 -10 -3 -6 -9 -10 -10 -10 -3 0 6 -9 10 -20 8 -11 -2 -20 1 -20 7 0 6
-11 8 -25 6 -13 -3 -22 -1 -19 3 3 5 -9 9 -26 9 -17 0 -29 3 -26 8 2 4 -11 7
-30 6 -19 -1 -34 2 -34 8 0 5 -4 6 -10 3 -5 -3 -10 -2 -10 4 0 6 -7 8 -15 5
-8 -4 -15 -1 -15 6 0 10 -3 10 -15 0 -12 -10 -15 -10 -15 0 0 8 -9 11 -25 8
-13 -3 -22 -2 -20 2 3 4 -12 10 -33 14 -66 10 -139 35 -140 48 -6 44 -6 878 0
901 4 16 3 25 -3 22 -5 -4 -9 -1 -9 4 0 6 5 11 11 11 5 0 8 4 4 9 -3 6 -140 9
-326 9 l-321 0 4 -29 c3 -16 1 -29 -3 -29 -4 0 -4 -13 1 -30 5 -17 5 -30 0
-30 -5 0 -7 -6 -5 -12 8 -22 11 -128 3 -128 -3 0 -3 -13 2 -30 5 -17 5 -30 0
-30 -5 0 -5 -13 0 -30 5 -17 5 -30 0 -30 -5 0 -5 -13 0 -30 5 -16 5 -30 1 -30
-5 0 -5 -18 -1 -40 4 -22 4 -40 -1 -40 -4 0 -4 -13 1 -30 5 -17 5 -30 0 -30
-5 0 -5 -13 0 -30 5 -17 5 -30 0 -30 -5 0 -5 -13 0 -30 5 -17 5 -30 0 -30 -5
0 -5 -13 0 -30 5 -17 5 -30 0 -30 -5 0 -7 -6 -5 -12 9 -22 11 -108 4 -108 -4
0 -4 -13 1 -30 5 -17 5 -30 0 -30 -5 0 -5 -13 0 -30 5 -17 5 -30 0 -30 -5 0
-5 -12 -1 -28 16 -55 18 -54 -437 -53 -229 1 -423 2 -429 3 -16 2 -14 -160
-15 1476 0 1408 -1 1370 44 1359 10 -3 18 -1 18 3 0 5 14 5 30 0 17 -5 30 -5
30 0z"/>
</g>
</svg>
