<?xml version="1.0" encoding="UTF-8"?>
<!-- Generator: Adobe Illustrator 25.0.0, SVG Export Plug-In . SVG Version: 6.00 Build 0)  -->
<svg version="1.1" id="Layer_1" xmlns="http://www.w3.org/2000/svg" xmlns:xlink="http://www.w3.org/1999/xlink" x="0px" y="0px" viewBox="0 0 370 82.6" style="enable-background:new 0 0 370 82.6;" xml:space="preserve">
<g id="original-wordmark">
	<path id="path4" d="M114.8,82.6v-81h4.4v12.7c0.5-0.6,1-1.2,1.4-1.8c3.7-7.6,11.4-12.4,19.8-12.3c10-0.3,18.1,3.4,22.9,12.3   c6.2,11.2,6.6,24.7,1,36.3c-4.5,10-15.5,14.9-27.2,13.1c-7.4-0.6-14.1-5-17.6-11.6v32.3H114.8z M119.2,30.3c0.4,3.9,0.5,6.8,1,9.5   c1.7,10.8,8.1,17.3,18.2,18.4c9.7,1.6,19.2-3.9,22.7-13.1c3.9-9.3,3.6-19.8-0.8-28.9C156.6,8,147.9,3.2,139,4.4   c-8.4,0.6-15.4,6.5-17.6,14.6C120.4,22.7,119.7,26.5,119.2,30.3L119.2,30.3z"/>
	<path id="path6" d="M257.9,41.3c-1.4,11.8-11.3,20.7-23.1,20.9c-18.4,0.9-27.1-11.3-28.4-25.4c-1-7.7,0.3-15.4,3.6-22.4   c4.7-9.8,15.2-15.5,26-14c10.3,0.9,18.9,8.2,21.3,18.3c0.9,4.4,1.6,8.9,2.1,13.4H211c-0.9,12.8,6,23.1,15.7,25.6   c12.1,3,22.5-2.3,26.3-13.8C253.7,40.9,255.2,40.4,257.9,41.3z M210.9,28h43.3c-0.3-13.6-8.8-23.5-20.3-23.6   C220.8,4.1,211.4,13.6,210.9,28z"/>
	<path id="path8" d="M266.8,41.6h4.2c0.3,6.4,4.2,12,10,14.6c7.3,3.3,15.6,3,22.7-0.6c3.9-1.7,6.3-5.7,6-10c0.2-4.1-2.3-7.9-6.2-9.2   c-4.7-1.7-9.6-2.7-14.4-4.2c-4.9-1.4-9.8-3.2-14.5-5.3c-7.6-3.7-8.1-18.3,0.5-22.9c9-5.1,20-5.3,29.2-0.4c5.6,3.1,8.7,9.3,7.7,15.6   h-3.5c0-0.2-0.3-0.3-0.3-0.5C307.7,7.1,298,3.5,287.5,4.5c-3.1,0.4-6.2,1.3-9,2.7c-4.7,2.4-6.6,8.2-4.2,12.9c1,2.1,2.8,3.7,4.9,4.5   c4.6,1.7,9.4,2.8,14.1,4.1c3.8,1.1,7.7,1.7,11.4,3c5.3,1.7,9,6.6,9.3,12.2c0.9,6.1-2.2,12.1-7.7,14.9c-10,5.6-26.4,4.2-33.8-3   C268.9,52,266.8,46.9,266.8,41.6z"/>
	<path id="path10" d="M367.9,19.2h-4c-0.1-0.5-0.1-1-0.3-1.5c-0.1-6.1-4.5-11.3-10.5-12.5c-5.5-1.6-11.4-1.3-16.8,0.8   c-4.3,1.2-7.3,5.2-7.4,9.7c-0.2,4.5,2.8,8.4,7.2,9.4c6,1.9,12.1,3,18.2,4.7c2,0.5,3.9,1.1,5.8,1.8c7.8,2.8,11.8,11.3,9,19.1   c-1.4,3.9-4.4,7.1-8.2,8.7c-8.5,3.9-18.3,4-26.9,0.3c-7.2-3.1-11.7-10.3-11.3-18.1h3.9c2.4,11.8,14,19.4,25.7,16.9   c2.7-0.5,5.2-1.6,7.4-3.1c3.7-1.9,5.9-5.8,5.7-10c0.2-4.1-2.4-7.9-6.3-9.2c-4.7-1.7-9.6-2.7-14.4-4.2c-5-1.4-9.8-3.1-14.6-5.2   c-7.5-3.7-8.1-18.1,0.5-22.7c9.1-5.3,20.4-5.4,29.6-0.3C365.7,7,368.7,13,367.9,19.2z"/>
	<path id="path12" d="M107.5,60.7c-3.2,1.2-6.9-0.2-8.5-3.2c-4.9-7.3-10.3-14.3-15.4-21.4l-2.2-3c-6.2,8.3-12.3,16.2-17.9,24.4   c-1.5,2.9-5,4.3-8.1,3.2l23.1-31L57,1.7c3.2-1.1,6.8,0.1,8.5,3c5,7.3,10.5,14.3,16,21.6C87,19,92.5,12,97.6,4.7c1.5-2.9,5-4.2,8-3   l-8.3,11.1c-3.7,4.9-7.4,9.9-11.3,14.7c-1.2,1.1-1.3,3-0.2,4.2c0.1,0.1,0.1,0.2,0.2,0.2C93.1,41.5,100.2,51,107.5,60.7z"/>
	<path id="path14" d="M205.6,1.4v4.2c-11.9-0.8-22.2,8.3-23,20.2c0,0.7-0.1,1.5,0,2.2v32.9h-4.3V1.6h4.2v12.1   C187.6,4.9,195.6,1.6,205.6,1.4z"/>
	<path id="path16" d="M0,29.3c0.6-3,1-6.3,1.9-9.3C7.1,1.6,28.1-6,42.6,5.4c8.5,6.7,10.6,16.1,10.2,26.8H5   c-0.8,19,12.9,30.5,30.5,24.6c5.8-2.1,10.1-6.9,11.6-12.9c0.9-3,2.4-3.5,5.3-2.6c-0.9,7.4-5.2,13.9-11.6,17.7   c-10.7,5.8-23.9,4.2-32.7-4.2C3.8,50,1.3,43.9,0.8,37.5c-0.1-1-0.3-2-0.6-3C0,32.7,0,31,0,29.3z M5.1,28h43.3   c-0.3-13.8-9-23.6-20.6-23.6C14.8,4.2,5.6,13.8,5.1,28L5.1,28z"/>
</g>
</svg>