<svg xmlns="http://www.w3.org/2000/svg" width="1000" height="1000"><defs><clipPath id="a"><path fill="currentColor" d="M952.5 647Q905 794 780 885t-280 91q-155 0-280-91T47.5 647Q0 500 47.5 353T220 115q125-91 280-91t280 91q125 91 172.5 238t0 294Z"/></clipPath><pattern id="b" patternUnits="userSpaceOnUse" width="25" height="25" viewBox="0 0 100 100" fill="#838688"><circle cx="50" cy="50" r="12.5"/></pattern></defs><g clip-path="url(#a)"><path fill="url(#b)" d="M952.5 647Q905 794 780 885t-280 91q-155 0-280-91T47.5 647Q0 500 47.5 353T220 115q125-91 280-91t280 91q125 91 172.5 238t0 294Z"/></g></svg>